<?xml version="1.0" encoding="utf-8"?>
<!-- Generator: Adobe Illustrator 21.1.0, SVG Export Plug-In . SVG Version: 6.00 Build 0)  -->
<svg version="1.1" id="Capa_1" xmlns="http://www.w3.org/2000/svg" xmlns:xlink="http://www.w3.org/1999/xlink" x="0px" y="0px"
	 viewBox="0 0 80 80" style="enable-background:new 0 0 80 80;" xml:space="preserve">
<style type="text/css">
	.st0{fill:#FFFFFF;}
</style>
<title>logo-fge-svg-08</title>
<path class="st0" d="M7.4,77H5.5v2c0,0.1-0.1,0.1-0.1,0.1H5.1C5,79.1,5,79.1,5,79c0,0,0,0,0,0v-3.3c0-0.8,0.4-1.1,1.3-1.1
	c0.4,0,0.9,0,1.2,0c0,0,0.1,0,0.1,0.1V75c0,0,0,0.1-0.1,0.1c0,0,0,0,0,0H6.3c-0.6,0-0.7,0.2-0.7,0.6v0.8h1.9c0.1,0,0.1,0.1,0.1,0.1
	c0,0,0,0,0,0v0.2C7.5,77,7.5,77,7.4,77C7.4,77,7.4,77,7.4,77z"/>
<path class="st0" d="M8.8,75.3H8.4c-0.1,0-0.1-0.1-0.1-0.1v-0.5c0-0.1,0.1-0.1,0.1-0.1h0.3c0.1,0,0.1,0.1,0.1,0.1v0.5
	C8.9,75.2,8.8,75.3,8.8,75.3z M8.7,79.1H8.5c-0.1,0-0.1-0.1-0.1-0.1c0,0,0,0,0,0v-3.1c0-0.1,0.1-0.1,0.1-0.1h0.3
	c0.1,0,0.1,0.1,0.1,0.1V79C8.9,79.1,8.8,79.1,8.7,79.1C8.7,79.1,8.7,79.1,8.7,79.1L8.7,79.1z"/>
<path class="st0" d="M10.7,79.2c-0.3,0-0.6,0-1-0.1c-0.1,0-0.1-0.1-0.1-0.1v-0.2c0-0.1,0-0.1,0.1-0.1c0,0,0,0,0,0h0
	c0.3,0,0.7,0.1,1,0.1c0.4,0,0.6-0.1,0.6-0.4c0-0.2-0.1-0.3-0.5-0.5l-0.6-0.4c-0.4-0.2-0.6-0.5-0.6-0.9c0-0.6,0.5-0.8,1.1-0.8
	c0.3,0,0.6,0,0.9,0.1c0.1,0,0.1,0.1,0.1,0.1c0,0,0,0,0,0v0.2c0,0.1,0,0.1-0.1,0.1c0,0,0,0,0,0h0c-0.2,0-0.6,0-0.9,0
	c-0.3,0-0.6,0-0.6,0.4c0,0.2,0.1,0.3,0.4,0.5l0.6,0.4c0.5,0.3,0.7,0.6,0.7,0.9C11.9,78.9,11.4,79.2,10.7,79.2z"/>
<path class="st0" d="M14.5,79.1c-0.3,0-0.5,0.1-0.8,0.1c-0.8,0-1.3-0.6-1.3-1.5v-0.5c0-0.9,0.5-1.5,1.3-1.5c0.3,0,0.5,0,0.8,0.1
	c0.1,0,0.1,0,0.1,0.1v0.2c0,0.1,0,0.1-0.1,0.1c0,0,0,0,0,0h0c-0.3,0-0.5,0-0.8,0c-0.5,0-0.8,0.3-0.8,1v0.5c0,0.7,0.3,1,0.8,1
	c0.3,0,0.5,0,0.8,0h0c0.1,0,0.1,0,0.1,0.1c0,0,0,0,0,0V79C14.7,79.1,14.6,79.1,14.5,79.1z"/>
<path class="st0" d="M17.6,79.1h-0.3c-0.1,0-0.1-0.1-0.1-0.1c0,0,0,0,0,0v-0.1c-0.3,0.2-0.6,0.3-0.9,0.3c-0.5,0.1-0.9-0.3-1-0.8
	c0-0.1,0-0.1,0-0.2v-0.1c0-0.7,0.4-1,1.5-1h0.4v-0.2c0-0.5-0.2-0.7-0.7-0.7c-0.3,0-0.6,0-0.9,0h0c-0.1,0-0.1,0-0.1-0.1v-0.2
	c0-0.1,0-0.1,0.1-0.1c0.3-0.1,0.6-0.1,0.9-0.1c0.8,0,1.2,0.4,1.2,1.1V79C17.7,79.1,17.6,79.1,17.6,79.1
	C17.6,79.1,17.6,79.1,17.6,79.1z M17.1,77.5h-0.4c-0.7,0-0.9,0.2-0.9,0.6v0.1c0,0.4,0.2,0.6,0.6,0.6c0.3,0,0.6-0.1,0.8-0.2V77.5z"/>
<path class="st0" d="M19,79.1h-0.3c-0.1,0-0.1-0.1-0.1-0.1v-4.3c0-0.1,0-0.1,0.1-0.1c0,0,0,0,0,0H19c0.1,0,0.1,0.1,0.1,0.1
	c0,0,0,0,0,0V79C19.1,79.1,19.1,79.1,19,79.1C19,79.1,19,79.1,19,79.1z"/>
<path class="st0" d="M21.2,74.5l-0.7,0.8c-0.1,0.1-0.1,0.1-0.1,0.1H20c0,0-0.1,0-0.1,0c0,0,0,0,0-0.1l0.6-0.8
	c0.1-0.1,0.1-0.1,0.1-0.1L21.2,74.5C21.2,74.4,21.2,74.4,21.2,74.5C21.2,74.5,21.2,74.5,21.2,74.5z M20.5,79.1h-0.3
	c-0.1,0-0.1-0.1-0.1-0.1v-3.1c0-0.1,0.1-0.1,0.1-0.1h0.3c0.1,0,0.1,0.1,0.1,0.1V79C20.6,79.1,20.5,79.1,20.5,79.1
	C20.5,79.1,20.5,79.1,20.5,79.1z"/>
<path class="st0" d="M23.7,79.1h-0.3c-0.1,0-0.1-0.1-0.1-0.1v-0.1c-0.3,0.2-0.6,0.3-0.9,0.3c-0.5,0.1-0.9-0.3-1-0.8
	c0-0.1,0-0.1,0-0.2v-0.1c0-0.7,0.4-1,1.5-1h0.4v-0.2c0-0.5-0.2-0.7-0.7-0.7c-0.3,0-0.6,0-0.9,0h0c-0.1,0-0.1,0-0.1-0.1v-0.2
	c0-0.1,0-0.1,0.1-0.1c0.3-0.1,0.6-0.1,0.9-0.1c0.8,0,1.2,0.4,1.2,1.1V79C23.8,79.1,23.8,79.1,23.7,79.1z M23.3,77.5h-0.4
	c-0.7,0-0.9,0.2-0.9,0.6v0.1c0,0.4,0.2,0.6,0.6,0.6c0.3,0,0.6-0.1,0.8-0.2V77.5z"/>
<path class="st0" d="M28.9,79.1c-0.4,0.1-0.8,0.1-1.2,0.1c-0.8,0-1.6-0.5-1.6-1.9v-0.8c0-1.5,0.9-1.9,1.6-1.9c0.4,0,0.8,0,1.2,0.1
	c0.1,0,0.1,0,0.1,0.1v0.3c0,0,0,0.1-0.1,0.1h0c-0.4,0-0.6,0-1.2,0c-0.6,0-1.1,0.3-1.1,1.4v0.8c0,1,0.5,1.4,1,1.4c0.4,0,0.6,0,0.8,0
	v-1.7c0-0.1,0-0.1,0.1-0.1c0,0,0,0,0,0h0.3c0.1,0,0.1,0.1,0.1,0.1v2C29,79,28.9,79.1,28.9,79.1z"/>
<path class="st0" d="M32.3,77.6h-2v0.1c0,0.7,0.3,1,0.8,1c0.4,0,0.7,0,1.1-0.1h0c0,0,0.1,0,0.1,0.1c0,0,0,0,0,0v0.2
	c0,0.1,0,0.1-0.1,0.1c-0.4,0.1-0.7,0.1-1.1,0.1c-0.7,0.1-1.3-0.5-1.4-1.2c0-0.1,0-0.2,0-0.3v-0.5c-0.1-0.7,0.4-1.3,1.1-1.4
	c0.1,0,0.2,0,0.2,0c0.7,0,1.3,0.5,1.3,1.2c0,0.1,0,0.2,0,0.3v0.3C32.4,77.6,32.4,77.6,32.3,77.6z M31.9,77.2c0-0.7-0.3-1-0.8-1
	c-0.5,0-0.8,0.3-0.8,1v0.1L31.9,77.2L31.9,77.2z"/>
<path class="st0" d="M35.6,79.1h-0.3c-0.1,0-0.1-0.1-0.1-0.1c0,0,0,0,0,0v-2c0-0.6-0.2-0.8-0.7-0.8c-0.3,0-0.6,0.1-0.8,0.2V79
	c0,0.1-0.1,0.1-0.1,0.1h-0.3c-0.1,0-0.1-0.1-0.1-0.1v-3.1c0-0.1,0-0.1,0.1-0.1c0,0,0,0,0,0h0.3c0.1,0,0.1,0.1,0.1,0.1c0,0,0,0,0,0
	V76c0.3-0.2,0.6-0.3,1-0.3c0.7,0,1.1,0.5,1.1,1.3v2C35.7,79.1,35.7,79.1,35.6,79.1C35.6,79.1,35.6,79.1,35.6,79.1z"/>
<path class="st0" d="M39,77.6h-2v0.1c0,0.7,0.3,1,0.8,1c0.4,0,0.7,0,1.1-0.1h0c0,0,0.1,0,0.1,0.1v0.2c0,0.1,0,0.1-0.1,0.1
	c-0.4,0.1-0.7,0.1-1.1,0.1c-0.7,0.1-1.3-0.5-1.4-1.2c0-0.1,0-0.2,0-0.3v-0.5c-0.1-0.7,0.4-1.3,1.1-1.4c0.1,0,0.2,0,0.2,0
	c0.7,0,1.3,0.5,1.3,1.2c0,0.1,0,0.2,0,0.3v0.3C39.1,77.6,39.1,77.6,39,77.6z M38.6,77.2c0-0.7-0.3-1-0.8-1c-0.5,0-0.8,0.3-0.8,1v0.1
	L38.6,77.2L38.6,77.2z"/>
<path class="st0" d="M41.2,76.2c-0.3,0-0.6,0.1-0.8,0.3V79c0,0.1-0.1,0.1-0.1,0.1H40c-0.1,0-0.1-0.1-0.1-0.1v-3.1
	c0-0.1,0-0.1,0.1-0.1c0,0,0,0,0,0h0.3c0.1,0,0.1,0.1,0.1,0.1c0,0,0,0,0,0V76c0.2-0.2,0.5-0.3,0.9-0.3c0.1,0,0.1,0,0.1,0.1v0.2
	C41.4,76.2,41.3,76.2,41.2,76.2z"/>
<path class="st0" d="M44,79.1h-0.3c-0.1,0-0.1-0.1-0.1-0.1c0,0,0,0,0,0v-0.1c-0.3,0.2-0.6,0.3-0.9,0.3c-0.5,0.1-0.9-0.3-1-0.8
	c0-0.1,0-0.1,0-0.2v-0.1c0-0.7,0.4-1,1.5-1h0.5v-0.2c0-0.5-0.2-0.7-0.7-0.7c-0.3,0-0.6,0-0.9,0h0c-0.1,0-0.1,0-0.1-0.1v-0.2
	c0-0.1,0-0.1,0.1-0.1c0.3-0.1,0.6-0.1,0.9-0.1c0.8,0,1.2,0.4,1.2,1.1V79C44.1,79.1,44,79.1,44,79.1C44,79.1,44,79.1,44,79.1z
	 M43.6,77.5h-0.5c-0.7,0-0.9,0.2-0.9,0.6v0.1c0,0.4,0.2,0.6,0.6,0.6c0.3,0,0.6-0.1,0.8-0.2L43.6,77.5z"/>
<path class="st0" d="M45.4,79.1h-0.3C45,79.1,45,79.1,45,79c0,0,0,0,0,0v-4.3c0-0.1,0-0.1,0.1-0.1c0,0,0,0,0,0h0.3
	c0.1,0,0.1,0.1,0.1,0.1c0,0,0,0,0,0V79C45.5,79.1,45.5,79.1,45.4,79.1C45.4,79.1,45.4,79.1,45.4,79.1z"/>
<path class="st0" d="M50.2,79.1c-0.4,0.1-0.7,0.1-1.1,0.1c-0.9,0-1.3-0.6-1.3-1.5v-0.4c0-1,0.4-1.5,1.3-1.5c0.2,0,0.5,0,0.7,0.1
	v-1.1c0-0.1,0.1-0.1,0.1-0.1c0,0,0,0,0,0h0.3c0.1,0,0.1,0.1,0.1,0.1c0,0,0,0,0,0v4.3C50.4,79,50.4,79.1,50.2,79.1z M49.8,76.3
	c-0.2,0-0.5,0-0.7,0c-0.6,0-0.8,0.4-0.8,1v0.4c0,0.7,0.2,1,0.8,1c0.2,0,0.5,0,0.7,0V76.3z"/>
<path class="st0" d="M53.7,77.6h-2v0.1c0,0.7,0.3,1,0.8,1c0.4,0,0.7,0,1.1-0.1h0c0,0,0.1,0,0.1,0.1c0,0,0,0,0,0v0.2
	c0,0.1,0,0.1-0.1,0.1c-0.4,0.1-0.7,0.1-1.1,0.1c-0.7,0.1-1.3-0.5-1.4-1.2c0-0.1,0-0.2,0-0.3v-0.5c-0.1-0.7,0.4-1.3,1.1-1.4
	c0.1,0,0.2,0,0.2,0c0.7,0,1.3,0.5,1.3,1.2c0,0.1,0,0.2,0,0.3v0.3C53.8,77.6,53.7,77.6,53.7,77.6z M53.2,77.2c0-0.7-0.3-1-0.8-1
	c-0.5,0-0.8,0.3-0.8,1v0.1L53.2,77.2L53.2,77.2z"/>
<path class="st0" d="M55,79.1h-0.3c-0.1,0-0.1-0.1-0.1-0.1c0,0,0,0,0,0v-4.3c0-0.1,0-0.1,0.1-0.1c0,0,0,0,0,0H55
	c0.1,0,0.1,0.1,0.1,0.1c0,0,0,0,0,0V79C55.1,79.1,55.1,79.1,55,79.1z"/>
<path class="st0" d="M60,79.2c-0.2,0-0.8,0-1.2,0c-0.9,0-1.3-0.3-1.3-1.1v-2.3c0-0.8,0.4-1.1,1.3-1.1c0.4,0,0.9,0,1.2,0
	c0,0,0.1,0,0.1,0.1V75c0,0,0,0.1-0.1,0.1c0,0,0,0,0,0h-1.2c-0.6,0-0.7,0.2-0.7,0.6v0.8H60c0.1,0,0.1,0.1,0.1,0.1c0,0,0,0,0,0v0.2
	C60.1,77,60,77,60,77c0,0,0,0,0,0h-1.9v1c0,0.5,0.1,0.6,0.7,0.6H60c0,0,0.1,0,0.1,0.1c0,0,0,0,0,0L60,79.2
	C60.1,79.1,60.1,79.1,60,79.2z"/>
<path class="st0" d="M61.8,79.2c-0.3,0-0.6,0-1-0.1c-0.1,0-0.1-0.1-0.1-0.1v-0.2c0-0.1,0.1-0.1,0.1-0.1c0,0,0,0,0,0h0
	c0.3,0,0.7,0.1,1,0.1c0.4,0,0.6-0.1,0.6-0.4c0-0.2-0.1-0.3-0.5-0.5l-0.6-0.4c-0.4-0.2-0.6-0.5-0.6-0.9c0-0.6,0.5-0.8,1.1-0.8
	c0.3,0,0.6,0,0.9,0.1c0.1,0,0.1,0.1,0.1,0.1c0,0,0,0,0,0v0.2c0,0.1,0,0.1-0.1,0.1c0,0,0,0,0,0h0c-0.2,0-0.6,0-0.9,0s-0.6,0-0.6,0.4
	c0,0.2,0.1,0.3,0.4,0.5l0.6,0.4c0.5,0.3,0.7,0.6,0.7,0.9C63,78.9,62.5,79.2,61.8,79.2z"/>
<path class="st0" d="M65.3,79.2c-0.1,0-0.3,0-0.4,0c-0.6,0-0.8-0.1-0.8-0.8v-2.1l-0.6-0.1c-0.1,0-0.1,0-0.1-0.1v-0.2
	c0-0.1,0-0.1,0.1-0.1c0,0,0,0,0,0H64v-0.6c0-0.1,0-0.1,0.1-0.1l0.3,0h0c0.1,0,0.1,0,0.1,0.1c0,0,0,0,0,0v0.7h0.7
	c0.1,0,0.1,0.1,0.1,0.1v0.2c0,0.1-0.1,0.1-0.1,0.1h-0.7v2.1c0,0.3,0.1,0.4,0.3,0.4h0.3c0.1,0,0.1,0,0.1,0.1v0.2
	C65.4,79.1,65.3,79.1,65.3,79.2z"/>
<path class="st0" d="M68.1,79.1h-0.3c-0.1,0-0.1-0.1-0.1-0.1c0,0,0,0,0,0v-0.1c-0.3,0.2-0.6,0.3-0.9,0.3c-0.5,0.1-0.9-0.3-1-0.8
	c0-0.1,0-0.1,0-0.2v-0.1c0-0.7,0.4-1,1.5-1h0.4v-0.2c0-0.5-0.2-0.7-0.7-0.7c-0.3,0-0.6,0-0.9,0h0c-0.1,0-0.1,0-0.1-0.1v-0.2
	c0-0.1,0-0.1,0.1-0.1c0.3-0.1,0.6-0.1,0.9-0.1c0.8,0,1.2,0.4,1.2,1.1V79C68.3,79.1,68.2,79.1,68.1,79.1
	C68.1,79.1,68.1,79.1,68.1,79.1z M67.7,77.5h-0.4c-0.7,0-0.9,0.2-0.9,0.6v0.1c0,0.4,0.2,0.6,0.6,0.6c0.3,0,0.6-0.1,0.8-0.2
	L67.7,77.5z"/>
<path class="st0" d="M71.4,79.1c-0.4,0.1-0.7,0.1-1.1,0.1c-0.9,0-1.3-0.6-1.3-1.5v-0.4c0-1,0.4-1.5,1.3-1.5c0.2,0,0.5,0,0.7,0.1
	v-1.1c0-0.1,0.1-0.1,0.1-0.1c0,0,0,0,0,0h0.3c0.1,0,0.1,0,0.1,0.1c0,0,0,0,0,0v4.3C71.5,79,71.5,79.1,71.4,79.1z M71,76.3
	c-0.2,0-0.5,0-0.7,0c-0.6,0-0.8,0.4-0.8,1v0.4c0,0.7,0.2,1,0.8,1c0.2,0,0.5,0,0.7,0V76.3z"/>
<path class="st0" d="M73.6,79.2c-0.7,0-1.3-0.5-1.4-1.2c0-0.1,0-0.2,0-0.3v-0.5c-0.1-0.7,0.5-1.4,1.2-1.5c0.7-0.1,1.4,0.5,1.5,1.2
	c0,0.1,0,0.2,0,0.2v0.5c0.1,0.7-0.4,1.4-1.1,1.5C73.8,79.2,73.7,79.2,73.6,79.2z M74.4,77.2c0-0.6-0.2-1-0.8-1c-0.6,0-0.8,0.4-0.8,1
	v0.5c0,0.6,0.2,1,0.8,1c0.6,0,0.8-0.4,0.8-1V77.2z"/>
<path class="st0" d="M13.5,62.4l-2,8.4c-0.2,1-1.2,1.7-2.2,1.5c-1,0.2-2-0.5-2.3-1.5l-2-8.4c0,0,0,0,0-0.1c0-0.1,0.1-0.2,0.2-0.2
	c0,0,0,0,0,0H7c0.1,0,0.3,0.1,0.3,0.2L9,70.2c0,0.1,0.1,0.2,0.2,0.2c0.1,0,0.2-0.1,0.2-0.2l1.7-7.8c0-0.1,0.1-0.2,0.3-0.2h1.9
	C13.4,62.1,13.5,62.2,13.5,62.4C13.5,62.3,13.5,62.3,13.5,62.4C13.5,62.4,13.5,62.4,13.5,62.4z"/>
<path class="st0" d="M20.5,72.2c-0.9,0.1-1.8,0.2-2.6,0.2c-1.8,0-3.3-0.4-3.3-2.9v-4.5c0-2.5,1.6-2.9,3.3-2.9c0.9,0,1.8,0,2.6,0.2
	c0.2,0,0.3,0.1,0.3,0.3v1.3c0,0.2-0.1,0.3-0.3,0.3h-2.8c-0.6,0-0.9,0.2-0.9,0.9v1.2h3.5c0.1,0,0.3,0.1,0.3,0.3v1.3
	c0,0.1-0.1,0.3-0.3,0.3h-3.5v1.4c0,0.7,0.2,0.9,0.9,0.9h2.8c0.2,0,0.3,0.1,0.3,0.3v1.3C20.7,72.1,20.7,72.1,20.5,72.2z"/>
<path class="st0" d="M30.3,72.2h-2.1c-0.1,0-0.2-0.1-0.3-0.3l-1.8-3.4l-0.2,0c-0.3,0-0.7,0-1,0V72c0,0.1-0.1,0.3-0.3,0.3H23
	c-0.1,0-0.3-0.1-0.3-0.3v-9.1c0-0.5,0.2-0.6,0.6-0.7c0.9-0.1,1.8-0.2,2.8-0.2c2.3,0,4.1,0.8,4.1,3.2v0.2c0.1,1.2-0.6,2.3-1.8,2.7
	l2.1,3.8c0,0,0,0.1,0,0.1C30.5,72.2,30.4,72.2,30.3,72.2z M27.8,65.2c0-0.8-0.6-1.2-1.8-1.2c-0.2,0-0.9,0-1.1,0v2.6c0.1,0,0.8,0,1,0
	c1.4,0,1.9-0.4,1.9-1.3L27.8,65.2z"/>
<path class="st0" d="M39.8,72.2h-1.9c-0.1,0-0.3-0.1-0.3-0.2l-0.5-2.2h-2.8L33.9,72c0,0.1-0.1,0.2-0.3,0.2h-1.9
	c-0.1,0-0.2-0.1-0.2-0.2c0,0,0,0,0,0c0,0,0,0,0-0.1l2-8.4c0.2-1,1.2-1.7,2.3-1.5c1-0.2,2,0.5,2.2,1.5l2,8.4c0,0,0,0,0,0.1
	C40,72.1,39.9,72.2,39.8,72.2C39.8,72.2,39.8,72.2,39.8,72.2z M35.9,64.1c0-0.1-0.1-0.2-0.2-0.2c-0.1,0-0.2,0.1-0.2,0.2l-0.8,3.8h2
	L35.9,64.1z"/>
<path class="st0" d="M47,72.1c-0.7,0.2-1.3,0.2-2,0.2c-2.1,0-4-1.1-4-4.3v-1.7c0-3.2,2-4.3,4-4.3c0.7,0,1.4,0.1,2,0.2
	c0.2,0.1,0.3,0.1,0.3,0.3v1.3c0,0.1-0.1,0.3-0.2,0.3c0,0,0,0-0.1,0h0c-0.5,0-1.3-0.1-2-0.1c-0.9,0-1.7,0.5-1.7,2.3V68
	c0,1.8,0.7,2.3,1.7,2.3c0.7,0,1.5-0.1,2-0.1h0c0.1,0,0.2,0.1,0.3,0.2c0,0,0,0,0,0.1v1.3C47.3,72,47.2,72.1,47,72.1z"/>
<path class="st0" d="M56.6,72.2h-2.1c-0.1,0-0.2-0.1-0.3-0.3l-1.8-3.4l-0.2,0c-0.3,0-0.7,0-1,0V72c0,0.1-0.1,0.3-0.3,0.3h-1.8
	c-0.1,0-0.3-0.1-0.3-0.3v-9.1c0-0.5,0.2-0.6,0.6-0.7c0.9-0.1,1.8-0.2,2.8-0.2c2.3,0,4.1,0.8,4.1,3.2v0.2c0.1,1.2-0.6,2.3-1.8,2.7
	l2.1,3.8c0,0,0,0.1,0,0.1C56.8,72.2,56.8,72.2,56.6,72.2z M54.2,65.2c0-0.8-0.6-1.2-1.8-1.2c-0.2,0-0.9,0-1.1,0v2.6c0.1,0,0.8,0,1,0
	c1.4,0,1.9-0.4,1.9-1.3L54.2,65.2z"/>
<path class="st0" d="M62.4,72.4c-2.2,0-3.9-0.8-3.9-3.9v-6c0-0.1,0.1-0.3,0.3-0.3c0,0,0,0,0,0h1.8c0.1,0,0.3,0.1,0.3,0.3
	c0,0,0,0,0,0v6c0,1.4,0.4,2,1.6,2c1.2,0,1.6-0.6,1.6-2v-6c0-0.1,0.1-0.3,0.3-0.3c0,0,0,0,0,0H66c0.1,0,0.3,0.1,0.3,0.3v6
	C66.3,71.5,64.5,72.4,62.4,72.4z"/>
<path class="st0" d="M74.8,72.2h-6.2c-0.3,0-0.6-0.1-0.6-0.4v-1.1c0-0.2,0.1-0.4,0.2-0.6l3.8-5.7c0,0,0.1-0.1,0.1-0.1
	c0-0.1-0.1-0.1-0.1-0.1h-3.4c-0.1,0-0.3-0.1-0.3-0.3c0,0,0,0,0,0v-1.5c0-0.1,0.1-0.3,0.3-0.3c0,0,0,0,0,0h5.9c0.3,0,0.5,0.1,0.5,0.4
	c0,0,0,0.1,0,0.3c0,0.4,0,0.9,0,0.9c0,0.1,0,0.2-0.1,0.4L71.1,70c0,0-0.1,0.1-0.1,0.1c0,0.1,0.1,0.1,0.1,0.1h3.7
	c0.1,0,0.3,0.1,0.3,0.2c0,0,0,0,0,0V72C75.1,72.1,75,72.2,74.8,72.2z"/>
<path class="st0" d="M32.9,47.3c-0.8-0.1-2.5-0.1-3.6-0.1c-2.6,0-3.9,1-3.9,3.4v10c0,0.2,0.2,0.4,0.4,0.4h0.9c0.2,0,0.4-0.2,0.4-0.4
	v-6h5.6c0.2,0,0.4-0.2,0.4-0.4v-0.7c0-0.2-0.2-0.4-0.4-0.4h-5.6v-2.5c0-1.4,0.3-1.9,2.3-1.9h3.5c0.1,0,0.2-0.1,0.2-0.2c0,0,0,0,0,0
	v-0.9C33.1,47.4,33,47.3,32.9,47.3z"/>
<path class="st0" d="M43.8,53.9h-1c-0.2,0-0.3,0.2-0.3,0.3c0,0,0,0,0,0v5.2c-0.4,0-1.2,0.1-2.3,0.1c-1.7,0-3.1-1.2-3.1-4.2v-2.5
	c0-3.3,1.5-4.2,3.2-4.2c1.6,0,2.4,0,3.5,0.1h0.1c0.2,0,0.2-0.1,0.2-0.2v-0.9c0-0.2-0.1-0.3-0.3-0.3c-1.2-0.2-2.3-0.3-3.5-0.3
	c-2.3,0-4.9,1.3-4.9,5.7v2.5c0,4.2,2.5,5.7,4.7,5.7c1.2,0,2.4-0.1,3.6-0.3c0.2,0,0.3-0.2,0.3-0.4v-6.1C44.1,54,44,53.9,43.8,53.9z"
	/>
<path class="st0" d="M54.7,47.3c-0.8-0.1-2.5-0.1-3.6-0.1c-2.6,0-3.9,1-3.9,3.4v7c0,2.4,1.3,3.4,3.9,3.4c1.1,0,2.9,0,3.6-0.1
	c0.1,0,0.2-0.1,0.2-0.3v-0.9c0-0.1-0.1-0.2-0.2-0.2c0,0,0,0,0,0h-3.5c-1.9,0-2.3-0.5-2.3-1.9v-3.1h5.6c0.2,0,0.4-0.2,0.4-0.4v-0.7
	c0-0.2-0.2-0.4-0.4-0.4h-5.6v-2.5c0-1.4,0.3-1.9,2.3-1.9h3.5c0.1,0,0.2-0.1,0.2-0.2c0,0,0,0,0,0v-0.9C54.9,47.4,54.8,47.3,54.7,47.3
	z"/>
<path class="st0" d="M37.2,4.7C37.3,4.7,37.3,4.7,37.2,4.7L37.2,4.7c0.1,0,0.1,0.1,0.1,0.1l0.4,0.9l0,0h0.1l0.3-0.8c0,0,0-0.1,0-0.1
	c0,0,0,0,0.1,0l0,0c0,0,0,0,0.1,0c0,0,0,0,0,0.1v0.7c0,0,0,0.1,0,0.1c0,0-0.1,0-0.1,0h0v0.1H39l0.1-0.3l0,0H39l0,0
	c0,0.1-0.1,0.2-0.2,0.2c0,0,0,0-0.1,0c0,0-0.1,0-0.1,0c0,0-0.1,0-0.1,0c0,0,0,0,0-0.1V5.2c0.1,0,0.1,0,0.1,0.1c0,0,0.1,0.1,0.1,0.2
	l0,0h0.1V4.9h-0.1l0,0c0,0.1,0,0.1-0.1,0.2c0,0-0.1,0-0.1,0V4.8c0,0,0,0,0,0c0,0,0,0,0.1,0c0.1,0,0.2,0,0.2,0c0.1,0,0.1,0.1,0.1,0.2
	v0H39V4.6h-1.1v0.1l0,0c0,0,0,0,0,0c0,0,0,0,0.1,0h0c0,0,0,0,0,0c0,0,0,0,0,0l0,0c0,0,0,0,0,0l-0.2,0.4l-0.2-0.5c0,0,0,0,0,0v0l0,0
	c0,0,0,0,0,0c0,0,0,0,0.1,0c0,0,0,0,0,0l0,0V4.6L37.2,4.7L37.2,4.7L37.2,4.7L37.2,4.7z"/>
<path class="st0" d="M39.2,4.7C39.2,4.7,39.2,4.8,39.2,4.7l0,0.7c0,0.1,0,0.1,0,0.1c0,0-0.1,0-0.1,0l0,0v0.1h0.5V5.6h0
	c0,0-0.1,0-0.1,0c0,0,0-0.1,0-0.1V5.2l0.3,0.4l0,0h0.6V5.6h0c0,0,0,0-0.1,0c0,0,0,0,0,0c0,0,0-0.1,0-0.1c0,0,0,0,0,0c0,0,0,0,0-0.1
	h0.3l0,0.1c0,0,0,0,0,0c0,0,0,0,0,0.1c0,0,0,0,0,0c0,0-0.1,0-0.1,0h0v0.1h0.5V5.6h0c0,0,0,0-0.1,0c0,0-0.1-0.1-0.1-0.2l-0.3-0.7l0,0
	h-0.1l-0.3,0.8c0,0,0,0.1-0.1,0.1c0,0,0,0-0.1,0l0,0l0,0l0,0l-0.3-0.4c0,0,0.1,0,0.1-0.1C39.9,5,40,5,40,4.9c0-0.1-0.1-0.2-0.2-0.2
	c-0.1,0-0.2,0-0.2,0L39.2,4.7L39.2,4.7L39.2,4.7C39.2,4.7,39.2,4.7,39.2,4.7z M40.5,5l0.1,0.3h-0.2L40.5,5z M39.5,4.8
	C39.5,4.7,39.5,4.7,39.5,4.8c0.1-0.1,0.2,0,0.2,0c0,0,0,0.1,0,0.1c0,0.1,0,0.1-0.1,0.2c-0.1,0-0.1,0-0.2,0V4.8z"/>
<polygon class="st0" points="48.7,29.9 48.3,29.9 48,29.3 47.8,29.9 47.2,29.9 47.7,30.2 47.5,30.8 48,30.5 48.5,30.8 48.4,30.2 "/>
<polygon class="st0" points="30.6,29.8 30.4,29.3 30.2,29.8 29.5,29.9 30,30.2 29.9,30.8 30.4,30.5 30.9,30.8 30.7,30.2 31,29.9 "/>
<polygon class="st0" points="36.5,14.7 37,14.4 37.6,14.7 37.4,14.1 37.9,13.7 37.3,13.7 37,13.1 36.8,13.7 36.2,13.7 36.7,14.1 "/>
<polygon class="st0" points="31.1,16.3 31.4,16.9 31.6,16.2 32.2,16.1 31.6,15.8 31.7,15.1 31.2,15.6 30.7,15.3 30.9,15.9 
	30.5,16.4 "/>
<polygon class="st0" points="29.9,21.3 30.5,20.9 31,21.3 30.8,20.7 31.2,20.3 30.7,20.3 30.5,19.6 30.3,20.3 29.6,20.3 30.1,20.7 
	"/>
<polygon class="st0" points="41.4,13.7 41.2,13.1 41,13.7 40.4,13.7 40.9,14.1 40.7,14.7 41.2,14.4 41.8,14.7 41.6,14.1 42.1,13.7 
	"/>
<polygon class="st0" points="47.3,15.9 47.6,15.3 47,15.6 46.6,15.2 46.6,15.8 46.1,16.1 46.7,16.2 46.8,16.9 47.1,16.3 47.8,16.4 
	"/>
<polygon class="st0" points="47.2,21.3 47.8,20.9 48.3,21.3 48.1,20.7 48.6,20.3 48,20.3 47.8,19.6 47.6,20.3 47.1,20.3 47.4,20.7 
	"/>
<polygon class="st0" points="39.2,37.1 39.7,37.4 39.5,36.8 39.9,36.4 39.4,36.4 39.2,35.8 39,36.4 38.3,36.4 38.8,36.8 38.6,37.4 
	"/>
<polygon class="st0" points="31.2,24.7 30.7,24.7 30.5,24.1 30.3,24.7 29.7,24.7 30.2,25 30,25.6 30.5,25.3 31,25.6 30.9,25 "/>
<polygon class="st0" points="47.4,25.6 47.9,25.3 48.4,25.6 48.2,25 48.5,24.7 48.1,24.7 47.9,24.1 47.7,24.7 47.1,24.7 47.5,25 "/>
<path class="st0" d="M33.6,30.1c-0.1,0-0.1,0-0.2,0l-0.3,0l0,0v0l0,0c0,0,0,0,0,0c0,0,0,0,0,0l0.1,0.3c0,0,0,0,0,0c0,0,0,0,0,0l0,0
	v0l0.3,0l0,0l0,0c0,0,0,0,0,0h0c0,0,0,0,0,0l0-0.1c0,0,0,0,0,0c0,0,0,0,0,0c0,0,0,0,0.1,0c0,0,0,0,0.1-0.1c0,0,0-0.1,0-0.1
	C33.6,30.1,33.6,30.1,33.6,30.1z M33.5,30.2C33.5,30.3,33.5,30.3,33.5,30.2C33.5,30.3,33.5,30.3,33.5,30.2L33.5,30.2
	C33.5,30.3,33.4,30.3,33.5,30.2l-0.1-0.1c0,0,0,0,0,0c0,0,0,0,0,0c0,0,0,0,0,0c0,0,0,0,0,0C33.5,30.1,33.5,30.2,33.5,30.2
	C33.5,30.2,33.5,30.2,33.5,30.2z"/>
<path class="st0" d="M34.1,30.3c0,0,0,0.1-0.1,0.1c0,0-0.1,0-0.1,0c0,0,0,0,0,0l0,0c0,0,0,0,0,0l0-0.4c0,0,0,0,0-0.1c0,0,0,0,0.1,0
	l0,0l0,0l-0.3,0l0,0l0,0c0,0,0,0,0,0l0,0c0,0,0,0,0,0l0,0.4c0,0,0,0,0,0c0,0,0,0,0,0l0,0l0,0l0.5-0.1L34.1,30.3L34.1,30.3L34.1,30.3
	z"/>
<path class="st0" d="M34.5,29.9L34.5,29.9C34.6,29.9,34.6,29.9,34.5,29.9C34.6,29.9,34.6,30,34.5,29.9l0.1,0.3c0,0,0,0.1,0,0.1
	c0,0-0.1,0.1-0.1,0.1c0,0-0.1,0-0.1,0c0,0,0-0.1,0-0.1l0-0.3c0,0,0,0,0,0c0,0,0,0,0.1,0L34.5,29.9L34.5,29.9l-0.4,0l0,0l0,0
	c0,0,0,0,0,0c0,0,0,0,0,0l0,0.3c0,0,0,0.1,0,0.1c0,0,0,0,0.1,0c0,0,0,0,0,0c0,0,0,0,0,0c0,0,0,0,0.1,0c0.1,0,0.1,0,0.2-0.1
	c0,0,0,0,0-0.1c0,0,0,0,0-0.1c0,0,0,0,0-0.1l0-0.2c0,0,0,0,0,0l0,0l0,0c0,0,0,0,0,0l0,0l0,0L34.5,29.9L34.5,29.9L34.5,29.9z"/>
<path class="st0" d="M34.9,30.2L34.9,30.2c0.1,0,0.1,0,0.1,0c0,0,0,0,0,0c0,0,0,0,0,0.1c0,0,0,0-0.1,0c0,0-0.1,0-0.1,0
	C34.9,30.3,34.8,30.2,34.9,30.2L34.9,30.2l-0.1,0l0,0.2v0l0,0v0c0,0,0,0,0,0l0,0l0,0h0l0,0c0,0,0,0,0.1,0h0c0.1,0,0.1,0,0.1-0.1
	c0,0,0-0.1,0-0.1c0,0,0-0.1-0.1-0.1c0,0,0,0-0.1,0L35,30c0,0-0.1,0-0.1,0l0,0c0,0,0,0,0,0c0,0,0,0,0,0c0,0,0,0,0.1,0
	c0,0,0.1,0,0.1,0c0,0,0,0.1,0.1,0.1v0l0,0l0-0.2l0,0v0l0,0l0,0c0,0,0,0,0,0c0,0-0.1,0-0.1,0c-0.1,0-0.1,0-0.1,0.1c0,0,0,0.1,0,0.1
	c0,0,0,0.1,0,0.1C34.8,30.1,34.9,30.1,34.9,30.2z"/>
<path class="st0" d="M43.4,29.9C43.4,29.8,43.4,29.8,43.4,29.9L43.4,29.9L43.4,29.9l-0.1-0.1l0,0l0,0C43.3,29.8,43.3,29.8,43.4,29.9
	C43.3,29.9,43.3,29.9,43.4,29.9l-0.1,0.3c0,0,0,0.1,0,0.1c0,0-0.1,0-0.1,0h0c0,0-0.1,0-0.1-0.1c0,0,0-0.1,0-0.1l0-0.3c0,0,0,0,0-0.1
	c0,0,0,0,0,0l0,0l0,0l-0.2,0h0l0,0l0,0c0,0,0,0,0,0c0,0,0,0,0,0l0,0.3c0,0,0,0.1,0,0.1c0,0.1,0.1,0.1,0.1,0.1c0,0,0,0,0,0
	c0,0,0.1,0,0.1,0c0,0,0.1-0.1,0.1-0.1L43.4,29.9C43.4,29.9,43.4,29.9,43.4,29.9z"/>
<path class="st0" d="M43.8,30.2L43.8,30.2C43.7,30.3,43.7,30.3,43.8,30.2c-0.1,0.1-0.1,0.1-0.2,0.1c0,0,0,0,0,0c0,0,0,0,0,0h0v0
	l0.1-0.3c0,0,0,0,0,0l0,0l0,0c0,0,0,0,0,0l0,0l0,0l-0.3,0v0l0,0c0,0,0,0,0,0l0,0c0,0,0,0,0,0l-0.1,0.4c0,0,0,0,0,0h0l0,0l0.4,0.1
	L43.8,30.2L43.8,30.2z"/>
<path class="st0" d="M43.8,30C43.8,30,43.8,30,43.8,30C43.9,30,43.9,30,43.8,30C43.9,30,43.9,30,43.8,30c0.1-0.1,0.1-0.1,0.1-0.1
	l-0.1,0.4c0,0,0,0,0,0c0,0,0,0,0,0l0,0l0,0l0.3,0l0,0l0,0l0,0c0,0,0,0,0,0c0,0,0,0,0-0.1l0.1-0.4c0,0,0,0,0.1,0c0,0,0,0.1,0,0.1v0
	l0,0l0-0.2l-0.4-0.1L43.8,30L43.8,30L43.8,30z"/>
<path class="st0" d="M44.3,30C44.3,30,44.3,30,44.3,30l0,0.4c0,0,0,0,0,0c0,0,0,0,0,0h0l0,0l0.2,0l0,0l0,0c0,0,0,0,0,0c0,0,0,0,0,0
	l0-0.1l0.1,0.2l0.2,0l0,0v0l0.1,0l0,0l0,0c0,0,0,0,0,0c0,0,0,0,0,0c0,0,0,0,0,0l0,0c0,0,0,0,0,0l0.1,0l0,0c0,0,0,0,0,0v0h0l0,0l0,0
	l0.2,0l0,0h0c0,0,0,0,0,0c0,0,0-0.1,0-0.1L45,30.1l0,0l-0.2,0.4c0,0,0,0,0,0.1l0,0c0,0,0,0,0,0l0,0v0l0,0v0l-0.1-0.2c0,0,0,0,0.1,0
	c0,0,0.1-0.1,0.1-0.1c0-0.1,0-0.1-0.1-0.1c0,0-0.1,0-0.1,0L44.3,30L44.3,30L44.3,30C44.3,30,44.3,30,44.3,30z M44.9,30.2l0,0.1
	l-0.1,0L44.9,30.2z M44.4,30L44.4,30L44.4,30C44.4,30,44.4,30,44.4,30C44.5,30,44.5,30,44.4,30C44.5,30.1,44.5,30.1,44.4,30
	c0.1,0.1,0.1,0.2,0,0.2c0,0,0,0,0,0c0,0,0,0,0,0L44.4,30z"/>
<path class="st0" d="M23.6,27.9c0,0,0.1,0.1,0.1,0.1h0c0.1,0,0.2-0.1,0.3-0.2c0-0.2-0.1-0.3-0.2-0.4c0,0-0.1,0-0.1,0
	c0,0-0.1,0-0.1,0c0,0-0.1,0.1-0.1,0.1c0,0,0,0,0,0.1C23.5,27.7,23.6,27.8,23.6,27.9z"/>
<path class="st0" d="M24.3,27.6c0.1-0.1,0.2-0.2,0.2-0.3c0,0,0-0.1,0-0.1C24.4,27,24.2,27,24.1,27c0,0,0,0-0.1,0
	C24,27,24,27,23.9,27.1c0,0.1,0,0.1,0,0.2C24,27.4,24.1,27.5,24.3,27.6C24.2,27.5,24.3,27.5,24.3,27.6z"/>
<path class="st0" d="M22.8,26.3L22.8,26.3c-0.1,0.1-0.2,0.2-0.2,0.3c0,0.1,0,0.1,0,0.1c0.1,0.1,0.3,0.2,0.4,0.1c0,0,0.1,0,0.1-0.1
	l0,0c0-0.1,0-0.1,0-0.2C23,26.5,22.9,26.4,22.8,26.3C22.8,26.3,22.8,26.3,22.8,26.3z"/>
<path class="st0" d="M23.3,26.5C23.3,26.5,23.3,26.5,23.3,26.5c0.1,0,0.1,0,0.2-0.1c0,0,0.1-0.1,0.1-0.1c0,0,0,0,0-0.1
	c0-0.1,0-0.2-0.1-0.3c0,0-0.1-0.1-0.1-0.1h0c-0.1,0-0.2,0.1-0.3,0.2C23.1,26.3,23.2,26.4,23.3,26.5z"/>
<path class="st0" d="M24.4,26.4c-0.2,0-0.3,0.1-0.4,0.3c0,0,0,0.1,0,0.1c0,0,0,0.1,0,0.1c0,0,0.1,0.1,0.1,0.1c0,0,0.1,0,0.1,0
	c0.1,0,0.2,0,0.3-0.1c0,0,0.1-0.1,0.1-0.1C24.5,26.6,24.5,26.5,24.4,26.4z"/>
<path class="st0" d="M22.7,27.4c0.2,0,0.3-0.1,0.4-0.2c0,0,0-0.1,0-0.1c0,0,0-0.1,0-0.1c0,0-0.1-0.1-0.1-0.1h0c0,0,0,0-0.1,0
	c-0.1,0-0.2,0-0.3,0.1c0,0-0.1,0.1-0.1,0.1C22.5,27.2,22.6,27.3,22.7,27.4z"/>
<path class="st0" d="M23.8,26.9c0-0.2-0.1-0.3-0.3-0.3c-0.2,0-0.3,0.1-0.3,0.3c0,0.2,0.1,0.3,0.3,0.3C23.7,27.2,23.8,27.1,23.8,26.9
	C23.8,26.9,23.8,26.9,23.8,26.9z"/>
<path class="st0" d="M23.9,26.5c0.1-0.1,0.2-0.2,0.3-0.3c0,0,0,0,0-0.1c-0.1-0.1-0.2-0.2-0.3-0.2c0,0,0,0-0.1,0c0,0,0,0-0.1,0
	c-0.1,0.1-0.2,0.3-0.1,0.4c0,0.1,0.1,0.1,0.1,0.1C23.8,26.5,23.8,26.5,23.9,26.5z"/>
<path class="st0" d="M23.2,27.9c0,0,0.1,0,0.1,0c0.1-0.1,0.2-0.3,0.2-0.4c0-0.1-0.1-0.1-0.1-0.1c0,0-0.1,0-0.1,0c0,0,0,0-0.1,0
	c-0.1,0.1-0.2,0.2-0.3,0.3c0,0,0,0,0,0.1C22.9,27.7,23,27.8,23.2,27.9z"/>
<path class="st0" d="M28.6,38.5C28.6,38.5,28.6,38.5,28.6,38.5c-0.1,0-0.1,0.1-0.1,0.1c0,0,0,0,0,0.1c0,0.1,0,0.2,0,0.2
	c0,0,0,0,0.1,0h0c0.1,0,0.2-0.1,0.2-0.1C28.9,38.7,28.8,38.6,28.6,38.5C28.7,38.5,28.7,38.5,28.6,38.5z"/>
<path class="st0" d="M28.8,38.5c0.1,0.1,0.1,0.2,0.2,0.2c0,0,0,0,0,0c0.1,0,0.2-0.1,0.2-0.2c0,0,0-0.1,0-0.1
	c-0.1-0.1-0.2-0.1-0.3-0.1c0,0,0,0,0,0c0,0-0.1,0-0.1,0.1C28.8,38.4,28.8,38.4,28.8,38.5z"/>
<path class="st0" d="M27.9,37.7c-0.1,0.1-0.1,0.1-0.2,0.2c0,0,0,0.1,0,0.1c0.1,0.1,0.2,0.1,0.4,0.1c0,0,0.1,0,0.1-0.1l0,0
	c0,0,0-0.1,0-0.1C28.1,37.9,28.1,37.8,27.9,37.7C28,37.7,27.9,37.7,27.9,37.7z"/>
<path class="st0" d="M28.3,37.9C28.4,37.9,28.4,37.9,28.3,37.9c0.1,0,0.1,0,0.1,0c0,0,0-0.1,0-0.1c0,0,0,0,0-0.1
	c0-0.1,0-0.2-0.1-0.2c0,0-0.1,0-0.1,0h0c-0.1,0-0.2,0.1-0.2,0.2C28.2,37.7,28.2,37.8,28.3,37.9z"/>
<path class="st0" d="M28.9,38.1C28.9,38.2,28.9,38.2,28.9,38.1c0.1,0,0.1,0,0.2,0c0.1,0,0.2,0,0.2-0.1c0,0,0,0,0-0.1
	c0-0.1-0.1-0.2-0.1-0.2c-0.1,0-0.3,0.1-0.3,0.2C28.8,38,28.9,38.1,28.9,38.1C28.9,38.1,28.9,38.1,28.9,38.1z"/>
<path class="st0" d="M27.9,38.6c0.1,0,0.3-0.1,0.3-0.2c0,0,0,0,0-0.1c0,0,0,0,0-0.1c0,0-0.1-0.1-0.1,0h0c0,0,0,0-0.1,0
	c-0.1,0-0.2,0-0.2,0c0,0,0,0,0,0.1C27.7,38.4,27.8,38.5,27.9,38.6z"/>
<circle class="st0" cx="28.5" cy="38.2" r="0.2"/>
<path class="st0" d="M28.7,37.9c0,0,0.1,0,0.1,0c0.1-0.1,0.2-0.1,0.2-0.2c0,0,0,0,0,0c0-0.1-0.1-0.2-0.2-0.2c0,0,0,0,0,0
	c0,0,0,0,0,0C28.6,37.6,28.6,37.7,28.7,37.9C28.6,37.8,28.6,37.9,28.7,37.9z"/>
<path class="st0" d="M28,38.8c0,0.1,0.1,0.2,0.2,0.2c0,0,0.1,0,0.1,0c0.1-0.1,0.1-0.2,0.1-0.3c0,0,0-0.1-0.1-0.1c0,0-0.1,0-0.1,0
	c0,0,0,0-0.1,0C28.2,38.6,28.1,38.7,28,38.8C28,38.7,28,38.8,28,38.8z"/>
<path class="st0" d="M26.7,23.4L26.7,23.4c-1.6,0.4-1.6,3.4-1.6,3.6v0.1l0.1-0.1C26.5,26.3,27.1,24.8,26.7,23.4L26.7,23.4z"/>
<path class="st0" d="M26.1,27.1c-0.5,0.2-0.8,0.6-1,1.1c0,0.5,0,0.9,0.1,1.4c0.1,0.4,0.2,0.8,0.1,1.2l0,0.3l0.2-0.2
	c0.8-1,1.3-2.2,1.3-3.5c0-0.2,0-0.4,0-0.6l0-0.2l-0.2,0.2C26.5,26.8,26.3,27,26.1,27.1z"/>
<path class="st0" d="M23.6,30.3c0.4,0.2,0.8,0.5,1.1,0.8l0.1,0.1l0-0.2c0-0.6-0.1-1.2-0.4-1.8c-0.3-0.5-0.8-0.8-1.3-1
	c-0.2-0.1-0.4-0.2-0.5-0.2c-0.5-0.2-0.9-0.4-1.3-0.8L21.1,27l0.1,0.3c0.1,0.2,0.2,0.4,0.2,0.6c0.2,0.6,0.5,1.2,1,1.7
	C22.8,29.8,23.2,30.1,23.6,30.3z"/>
<path class="st0" d="M27.3,39.3l-0.2-0.1L27.3,39.3c0.3,0.9,1,1.4,1.8,1.6c0.1,0,0.2,0,0.3,0c0.8-0.1,1.5-0.4,2-0.9l0.1-0.1
	l-0.4-0.1L31,39.7c-0.4-0.2-0.9-0.3-1.4-0.4c-0.1,0-0.2,0-0.4,0c-0.1,0-0.3,0.1-0.4,0.1c-0.2,0.1-0.3,0.1-0.5,0.1c0,0,0,0-0.1,0
	c-0.2,0-0.5-0.1-0.7-0.2C27.5,39.3,27.4,39.3,27.3,39.3z"/>
<path class="st0" d="M28.8,36.1L28.6,36l0.2,0.2c0.3,0.4,0.6,0.9,0.9,1.4c0.4,1.2,1.5,1.9,2.8,1.9l0.1,0l0-0.1
	C31.7,37.9,30.4,36.7,28.8,36.1z"/>
<path class="st0" d="M34.7,41.6c0.7,0,1.4-0.4,1.8-1l0.1-0.2l-0.2,0.1c-0.3,0.1-0.7,0-1-0.1c-0.2-0.1-0.5-0.1-0.7-0.1
	c-0.4,0-0.8,0.2-1,0.6l0,0l0,0C33.8,41.4,34.2,41.6,34.7,41.6z"/>
<path class="st0" d="M33.9,41.8c-0.1,0-0.3,0-0.4,0.1c-0.2,0.1-0.4,0.3-0.5,0.5c-0.1,0.3,0,0.6,0.1,0.8c0,0.1,0.1,0.1,0.1,0.2
	c0.1,0.2,0.2,0.3,0.3,0.5c0,0.1,0,0.3,0,0.5c0,0.1,0,0.2,0,0.3l0,0.2l0.1-0.1c0.4-0.5,1.1-2,0.8-2.6C34.3,42,34.1,41.8,33.9,41.8z"
	/>
<path class="st0" d="M26.6,29.8L26.6,29.8c-0.1,0.2-0.1,0.3-0.2,0.4c-0.1,0.2-0.2,0.5-0.3,0.7c-0.2,0.2-0.4,0.4-0.6,0.5
	c-0.2,0.2-0.5,0.4-0.6,0.7c-0.2,0.7-0.3,1.4-0.2,2.1l0,0.2l0.6-1.1c0.2-0.4,0.6-0.7,1-0.8c0.3-0.1,0.5-0.3,0.7-0.5
	C27.4,31.3,27.3,30.4,26.6,29.8L26.6,29.8z"/>
<path class="st0" d="M23.3,22.7c-0.1-0.2-0.3-0.4-0.3-0.7c0-0.1-0.1-0.2-0.1-0.3l0-0.1l-0.1,0.1c-0.6,0.6-0.7,1.4-0.3,2.2
	c0.2,0.2,0.4,0.4,0.7,0.5c0.4,0.1,0.7,0.4,1,0.8l0.6,1.1l0-0.2c0.1-0.7,0.1-1.4-0.2-2.1c-0.2-0.2-0.4-0.5-0.6-0.6
	C23.6,23.1,23.4,22.9,23.3,22.7z"/>
<path class="st0" d="M26.4,37.8c0.3,0,0.7-0.1,0.9-0.4c0.2-0.2,0.4-0.3,0.6-0.3l0.5,0L28,37c-0.6-0.1-1.2-0.3-1.6-0.8
	c-0.6-0.5-1.3-0.7-2.1-0.8c-0.2,0-0.3,0-0.5,0.1l-0.2,0.1l0.2,0.1c0.5,0.1,0.7,0.6,1,1c0.2,0.5,0.6,0.9,1.1,1.1
	C26.1,37.8,26.2,37.8,26.4,37.8z"/>
<path class="st0" d="M28.1,34.1L28.1,34.1l-0.1,0c0,0,0,0.1-0.1,0.2c-0.1,0.3-0.3,0.6-0.5,0.8c-0.1,0.1-0.3,0.3-0.3,0.5
	c-0.1,0.2,0,0.5,0.1,0.7c0.2,0.3,0.6,0.5,1,0.5l0.1,0l-0.3-0.6c-0.1-0.2,0-0.5,0.2-0.8c0.2-0.2,0.3-0.5,0.3-0.8
	C28.5,34.4,28.3,34.2,28.1,34.1z"/>
<path class="st0" d="M29.7,42.7c0.1,0.1,0.2,0.2,0.3,0.2c0.5,0.4,1,0.6,1.6,0.6c0.4,0,0.7-0.2,0.8-0.6c0-0.2,0-0.4-0.1-0.5
	c-0.1-0.1-0.3-0.2-0.4-0.1c-0.2,0-0.3,0-0.5,0c-0.1,0-0.2,0-0.3,0c-0.4,0-0.7-0.1-1.1-0.2c-0.4-0.2-0.8-0.2-1.3-0.2l-0.4,0l0.3,0.1
	C29,42.2,29.4,42.4,29.7,42.7z"/>
<path class="st0" d="M25,21.9c-0.1,0-0.2,0.1-0.2,0.2c0,0,0,0,0,0c0,0,0,0,0,0l0,0c0,0.1,0.1,0.2,0.2,0.3c0,0,0.1,0,0.1,0
	c0.1,0,0.2,0,0.2-0.1l0,0c0,0,0.1-0.1,0.1-0.2c0,0,0-0.1,0-0.1c0-0.1-0.1-0.1-0.1-0.1C25.2,21.9,25.1,21.9,25,21.9
	C25.1,21.9,25,21.9,25,21.9z"/>
<path class="st0" d="M24.7,20.6C24.7,20.6,24.7,20.6,24.7,20.6L24.7,20.6L24.7,20.6L24.7,20.6c-0.1-0.1-0.3,1.2,0.3,1.1
	c0.1-0.1,0.2-0.2,0.2-0.3C25,21.1,24.9,20.8,24.7,20.6L24.7,20.6L24.7,20.6z"/>
<path class="st0" d="M25.2,21.6C25.2,21.6,25.2,21.6,25.2,21.6l0,0.1c0,0,0,0,0,0c0,0,0,0,0,0l0,0h0.1c0.1,0,0.2-0.1,0.3-0.2
	c0.1-0.3,0.2-0.6,0.1-1l0,0c-0.2,0.2-0.4,0.4-0.5,0.7c0,0,0,0.1,0,0.1l0,0c0,0,0,0,0,0L25.2,21.6L25.2,21.6z"/>
<path class="st0" d="M24.3,21.4C24.3,21.4,24.3,21.4,24.3,21.4c-0.2-0.1-0.4-0.1-0.6,0c0,0,0,0.1,0,0.1c0,0,0,0,0,0c0,0,0,0,0,0
	c0.1,0.2,0.2,0.3,0.4,0.4c0.1,0.1,0.3,0.1,0.5,0c0.1-0.1,0.1-0.2,0-0.2C24.6,21.6,24.5,21.5,24.3,21.4z"/>
<path class="st0" d="M25.8,21.6c0,0-0.2,0.3-0.3,0.3c0,0-0.1,0.2,0.1,0.3c0,0,0.1,0,0.1,0h0l0,0c0.2-0.1,0.3-0.2,0.4-0.3
	c0.1-0.1,0.2-0.3,0.3-0.4l0,0C26.3,21.4,26.1,21.5,25.8,21.6z"/>
<path class="st0" d="M23.7,22.7L23.7,22.7c0.1,0,0.2,0,0.2,0h0v0c0.2,0,0.3,0,0.4-0.1c0.1-0.1,0.1-0.2,0.2-0.2c0,0,0,0,0-0.1
	c0-0.2-0.2-0.2-0.3-0.2h0c0,0,0,0-0.1,0h0c-0.1,0-0.2,0.1-0.2,0.1C23.8,22.4,23.7,22.5,23.7,22.7L23.7,22.7z"/>
<path class="st0" d="M24.9,22.6C24.9,22.6,24.8,22.6,24.9,22.6L24.9,22.6c-0.2-0.1-0.3,0-0.3,0.1c0,0,0,0,0,0h0
	c-0.1,0.3-0.1,0.6-0.1,0.8c0,0,0,0,0,0c0,0,0.1,0,0.1-0.1c0.2-0.2,0.5-0.4,0.4-0.7C25,22.7,24.9,22.6,24.9,22.6z"/>
<path class="st0" d="M25.4,22.6C25.4,22.6,25.4,22.6,25.4,22.6c-0.1,0-0.1,0-0.1,0c0,0-0.2,0-0.2,0.4c0,0,0,0,0,0.1c0,0,0,0,0,0
	c0,0,0,0.1,0,0.1c0,0,0.1,0.1,0.1,0.2c0.1,0.1,0.2,0.2,0.3,0.4c0.1-0.3,0.1-0.6,0-0.8C25.5,22.8,25.4,22.7,25.4,22.6z"/>
<path class="st0" d="M25.7,22.7C25.7,22.7,25.8,22.7,25.7,22.7c0.3,0,0.5-0.1,0.7-0.1c0-0.1-0.4-0.3-0.4-0.3
	c-0.5-0.2-0.4,0.2-0.4,0.2C25.5,22.6,25.6,22.7,25.7,22.7z"/>
<path class="st0" d="M23.3,32.6c0,0,0.1-0.1,0.1-0.2c0,0,0-0.1,0-0.1c0-0.1,0-0.1-0.1-0.1c0,0-0.1-0.1-0.2-0.1c0,0-0.1,0-0.1,0
	c-0.1,0-0.2,0.1-0.2,0.2c0,0,0,0,0,0c0,0,0,0,0,0c0,0,0,0,0,0c0,0.1,0.1,0.2,0.2,0.3c0,0,0.1,0,0.1,0C23.1,32.7,23.2,32.7,23.3,32.6
	L23.3,32.6z"/>
<path class="st0" d="M23,31.9c0.1,0,0.2-0.2,0.2-0.3c0-0.3-0.1-0.5-0.3-0.8l0,0l0,0l0,0v0l0,0C22.8,30.8,22.4,31.9,23,31.9z"/>
<path class="st0" d="M23.7,31.8c0.2-0.3,0.2-0.6,0.3-0.9v0c-0.2,0.1-0.5,0.3-0.6,0.6c0,0,0,0.1-0.1,0.1v0c0,0,0,0,0,0l0,0.2l0,0
	c0,0,0,0.1,0,0.1c0,0,0,0,0,0c0,0,0,0,0,0c0,0,0,0,0,0l0,0c0,0,0,0,0,0l0,0C23.6,32,23.7,31.9,23.7,31.8z"/>
<path class="st0" d="M22.4,31.6C22.4,31.6,22.4,31.6,22.4,31.6c-0.2-0.1-0.4-0.1-0.6-0.1c0,0,0,0.1,0,0.1c0,0,0,0,0,0c0,0,0,0,0,0
	c0.1,0.2,0.2,0.3,0.3,0.5c0.1,0.1,0.3,0.1,0.5,0.1c0.1-0.1,0.1-0.2,0.1-0.2C22.7,31.8,22.6,31.6,22.4,31.6z"/>
<path class="st0" d="M24.6,31.8L24.6,31.8c-0.2,0-0.5,0-0.7,0.1c0,0-0.3,0.3-0.4,0.3c0,0-0.1,0.2,0.1,0.3c0,0,0.1,0,0.1,0l0,0l0,0
	c0.2,0,0.3-0.1,0.5-0.2C24.3,32.1,24.5,31.9,24.6,31.8z"/>
<path class="st0" d="M22.6,32.6C22.6,32.5,22.6,32.5,22.6,32.6c0-0.2-0.2-0.3-0.3-0.3h0c0,0,0,0-0.1,0c-0.1,0-0.2,0-0.2,0.1
	c-0.2,0.1-0.3,0.2-0.4,0.4l0,0v0l0,0c0.1,0,0.1,0,0.2,0l0,0v0c0.2,0,0.3,0,0.5,0C22.4,32.7,22.5,32.6,22.6,32.6z"/>
<path class="st0" d="M22.8,32.8L22.8,32.8c-0.1-0.1-0.2,0-0.3,0c0,0,0,0,0,0l0,0c-0.1,0.3-0.2,0.5-0.2,0.8c0,0,0,0,0,0
	c0,0,0.1,0,0.1,0c0.3-0.1,0.5-0.3,0.5-0.7C22.9,32.9,22.9,32.8,22.8,32.8C22.8,32.8,22.8,32.8,22.8,32.8z"/>
<path class="st0" d="M23.3,32.8C23.3,32.8,23.2,32.8,23.3,32.8c-0.1,0-0.3,0-0.3,0.4c0,0,0,0,0,0.1c0,0,0,0,0,0c0,0.1,0,0.1,0,0.1
	c0,0.1,0,0.1,0.1,0.2c0.1,0.1,0.2,0.3,0.3,0.4c0.1-0.3,0.1-0.5,0.1-0.8C23.4,33.1,23.4,33,23.3,32.8C23.3,32.8,23.3,32.8,23.3,32.8z
	"/>
<path class="st0" d="M24,32.6c-0.4-0.3-0.5,0.1-0.5,0.1c0,0.1,0,0.2,0.1,0.3c0,0,0.1,0,0.1,0c0.2,0,0.4,0,0.6-0.1
	C24.3,32.9,24,32.6,24,32.6z"/>
<path class="st0" d="M26.8,34.3L26.8,34.3c0,0,0.1-0.1,0.1-0.1c0,0,0-0.1,0-0.1c0,0,0-0.1-0.1-0.1c0,0-0.1,0-0.1,0c0,0,0,0-0.1,0
	c-0.1,0-0.1,0.1-0.2,0.1c0,0,0,0,0,0c0,0,0,0,0,0l0,0c0,0.1,0.1,0.2,0.2,0.2c0,0,0,0,0.1,0C26.7,34.4,26.8,34.3,26.8,34.3z"/>
<path class="st0" d="M26.5,33.8c0.1,0,0.2-0.2,0.1-0.3c-0.1-0.2-0.2-0.4-0.3-0.5l0,0l0,0l0,0h0l0,0C26.3,32.9,26.1,33.9,26.5,33.8z"
	/>
<path class="st0" d="M26.8,33.7C26.8,33.7,26.8,33.8,26.8,33.7L26.8,33.7c0,0.1,0,0.1,0,0.1c0,0,0,0,0,0l0,0h0
	c0.1,0,0.2-0.1,0.2-0.2c0.1-0.2,0.1-0.5,0.1-0.7l0,0c-0.2,0.1-0.3,0.3-0.4,0.5c0,0,0,0.1,0,0.1l0,0l0,0L26.8,33.7L26.8,33.7z"/>
<path class="st0" d="M26,33.6L26,33.6c-0.2,0-0.3-0.1-0.4,0c0,0,0,0.1,0,0.1c0,0,0,0,0,0c0,0,0,0,0,0c0.1,0.1,0.2,0.2,0.3,0.3
	c0.1,0.1,0.2,0.1,0.4,0c0-0.1,0.1-0.1,0-0.2C26.3,33.7,26.2,33.6,26,33.6z"/>
<path class="st0" d="M27.2,33.7c0,0-0.2,0.2-0.3,0.2c0,0,0,0.2,0.1,0.2c0,0,0.1,0,0.1,0h0l0,0c0.1,0,0.2-0.1,0.3-0.2
	c0.1-0.1,0.2-0.2,0.2-0.3l0,0C27.5,33.6,27.4,33.6,27.2,33.7z"/>
<path class="st0" d="M25.6,34.6c0,0,0.1,0,0.1,0h0v0c0.1,0,0.2,0,0.3-0.1c0-0.1,0.1-0.1,0.2-0.2c0,0,0,0,0,0c0-0.1-0.2-0.2-0.2-0.1
	h0c0,0,0,0,0,0c-0.1,0-0.1,0-0.2,0.1C25.7,34.3,25.6,34.4,25.6,34.6L25.6,34.6L25.6,34.6L25.6,34.6z"/>
<path class="st0" d="M26.2,35.1C26.2,35.1,26.2,35.1,26.2,35.1c0.2-0.2,0.4-0.3,0.4-0.6c0,0,0-0.1-0.1-0.1v0c0,0,0,0,0,0l0,0
	c-0.1,0-0.2,0-0.2,0.1c0,0,0,0,0,0l0,0C26.1,34.7,26.1,35,26.2,35.1C26.1,35.2,26.2,35.2,26.2,35.1z"/>
<path class="st0" d="M26.7,34.8L26.7,34.8c0,0,0,0.1,0,0.1c0,0,0,0.1,0.1,0.1c0.1,0.1,0.1,0.2,0.2,0.3c0-0.2,0-0.4,0-0.6
	c-0.1-0.1-0.1-0.1-0.2-0.2c0,0,0,0,0,0c0,0,0,0,0,0C26.8,34.5,26.6,34.5,26.7,34.8C26.7,34.8,26.7,34.8,26.7,34.8
	C26.7,34.8,26.7,34.8,26.7,34.8z"/>
<path class="st0" d="M27.2,34.6c0.2,0,0.3,0,0.4-0.1c0-0.1-0.3-0.2-0.3-0.2C27,34.1,27,34.4,27,34.4C27,34.5,27,34.5,27.2,34.6
	C27.1,34.6,27.2,34.6,27.2,34.6z"/>
<path class="st0" d="M32.5,41.2L32.5,41.2c0,0,0.1-0.1,0.1-0.1c0,0,0-0.1,0-0.1c0,0,0-0.1-0.1-0.1c0,0-0.1,0-0.1,0c0,0,0,0-0.1,0
	c-0.1,0-0.1,0.1-0.2,0.1c0,0,0,0,0,0c0,0,0,0,0,0c0,0,0,0,0,0c0,0.1,0.1,0.2,0.2,0.2c0,0,0,0,0.1,0C32.4,41.2,32.4,41.2,32.5,41.2z"
	/>
<path class="st0" d="M32,39.8C32,39.8,32,39.8,32,39.8L32,39.8L32,39.8c0,0-0.2,0.9,0.2,0.8c0.1,0,0.2-0.2,0.1-0.3
	C32.3,40.2,32.2,40,32,39.8L32,39.8L32,39.8z"/>
<path class="st0" d="M32.5,40.3C32.5,40.3,32.4,40.3,32.5,40.3l0,0.3c0,0,0,0,0,0.1l0,0c0,0,0,0,0,0c0,0,0,0,0,0h0
	c0.1,0,0.2-0.1,0.2-0.2c0.1-0.2,0.1-0.5,0.1-0.7c0,0,0,0,0,0C32.7,39.9,32.6,40.1,32.5,40.3z"/>
<path class="st0" d="M31.7,40.4L31.7,40.4c-0.2,0-0.3-0.1-0.4,0c0,0,0,0.1,0,0.1c0,0,0,0,0,0c0,0,0,0,0,0c0.1,0.1,0.2,0.2,0.3,0.3
	c0.1,0.1,0.3,0.1,0.4,0c0-0.1,0.1-0.1,0-0.2C32,40.5,31.8,40.5,31.7,40.4z"/>
<path class="st0" d="M33.4,40.4c-0.2,0-0.3,0.1-0.5,0.1c0,0-0.2,0.2-0.3,0.2c0,0,0,0.2,0.1,0.2c0,0,0.1,0,0.1,0h0
	c0.1,0,0.2-0.1,0.3-0.2C33.3,40.6,33.3,40.5,33.4,40.4L33.4,40.4z"/>
<path class="st0" d="M32,41.1c0-0.1-0.2-0.2-0.2-0.2h0l0,0c-0.1,0-0.1,0-0.2,0.1c-0.1,0.1-0.2,0.2-0.3,0.4h0c0,0,0.1,0,0.1,0h0
	c0.1,0,0.2,0,0.3-0.1C31.8,41.3,31.9,41.2,32,41.1C32,41.2,32,41.1,32,41.1z"/>
<path class="st0" d="M31.8,42C31.9,42,31.9,42,31.8,42c0.2-0.2,0.4-0.3,0.4-0.6c0,0,0-0.1-0.1-0.1c0,0,0,0,0,0l0,0
	c-0.1,0-0.2,0-0.2,0.1c0,0,0,0,0,0v0C31.8,41.6,31.8,41.8,31.8,42C31.8,42,31.8,42,31.8,42z"/>
<path class="st0" d="M32.7,42.2c0-0.2,0-0.4,0-0.6c-0.1-0.1-0.1-0.1-0.2-0.2c0,0,0,0,0,0c0,0,0,0,0,0c0,0-0.2,0-0.1,0.3c0,0,0,0,0,0
	c0,0,0,0,0,0c0,0,0,0.1,0,0.1c0,0,0,0.1,0.1,0.1C32.5,42,32.6,42.1,32.7,42.2z"/>
<path class="st0" d="M32.9,41.4c0.2,0,0.3,0,0.5-0.1c0-0.1-0.3-0.3-0.3-0.3c-0.4-0.2-0.3,0.1-0.3,0.1C32.7,41.3,32.7,41.4,32.9,41.4
	C32.8,41.4,32.8,41.4,32.9,41.4z"/>
<path class="st0" d="M54.5,28L54.5,28c0.1,0,0.1,0,0.1-0.1c0-0.1,0.1-0.2,0.1-0.3c0,0,0,0,0-0.1c0,0,0-0.1-0.1-0.1c0,0-0.1,0-0.1,0
	c0,0-0.1,0-0.1,0c-0.1,0.1-0.2,0.3-0.2,0.4C54.3,27.9,54.4,28,54.5,28z"/>
<path class="st0" d="M54,27.6C54,27.6,54,27.6,54,27.6c0.2-0.1,0.3-0.2,0.3-0.3c0,0,0-0.1,0-0.2c0,0-0.1-0.1-0.1-0.1c0,0,0,0-0.1,0
	c-0.1,0-0.3,0.1-0.4,0.2c0,0,0,0.1,0,0.1C53.8,27.4,53.9,27.5,54,27.6z"/>
<path class="st0" d="M55.1,26.8C55.1,26.8,55.1,26.8,55.1,26.8c0,0.1,0.1,0.1,0.1,0.1c0.2,0,0.3,0,0.4-0.1c0,0,0-0.1,0-0.1
	c0-0.1-0.1-0.2-0.2-0.3h0c0,0,0,0-0.1,0c-0.1,0.1-0.2,0.2-0.3,0.3C55.1,26.7,55.1,26.7,55.1,26.8z"/>
<path class="st0" d="M54.9,26L54.9,26c0,0-0.1,0-0.1,0.1c0,0.1-0.1,0.2-0.1,0.3c0,0,0,0,0,0.1c0,0.1,0,0.1,0.1,0.1c0,0,0.1,0,0.1,0
	c0,0,0,0,0.1,0c0.1-0.1,0.2-0.2,0.3-0.4C55.2,26,55.1,26,54.9,26z"/>
<path class="st0" d="M53.7,26.8c0,0,0,0.1,0.1,0.1c0.1,0,0.2,0.1,0.3,0.1c0,0,0.1,0,0.1,0c0,0,0.1,0,0.1-0.1c0,0,0-0.1,0-0.1
	c0,0,0,0,0-0.1c-0.1-0.1-0.2-0.2-0.4-0.3C53.8,26.5,53.7,26.6,53.7,26.8z"/>
<path class="st0" d="M55.7,27.1c0,0,0-0.1-0.1-0.1c-0.1,0-0.2-0.1-0.3-0.1c0,0,0,0-0.1,0h0c0,0-0.1,0-0.1,0.1c0,0,0,0.1,0,0.1
	c0,0,0,0.1,0,0.1c0.1,0.1,0.3,0.2,0.4,0.2C55.7,27.4,55.8,27.2,55.7,27.1z"/>
<path class="st0" d="M55,27c0-0.2-0.1-0.3-0.3-0.3c-0.2,0-0.3,0.1-0.3,0.3c0,0,0,0,0,0c0,0.2,0.1,0.3,0.3,0.3S55,27.1,55,27
	C55,27,55,27,55,27z"/>
<path class="st0" d="M54.4,26.6c0,0,0.1,0,0.2,0c0,0,0.1-0.1,0.1-0.1c0-0.2,0-0.3-0.2-0.4c0,0,0,0-0.1,0c0,0,0,0-0.1,0
	c-0.1,0-0.2,0.1-0.3,0.2c0,0,0,0,0,0.1C54.2,26.4,54.3,26.5,54.4,26.6z"/>
<path class="st0" d="M55.1,27.9c0.1,0,0.2-0.1,0.3-0.2c0,0,0,0,0-0.1c-0.1-0.1-0.2-0.2-0.3-0.3c0,0,0,0-0.1,0c0,0-0.1,0-0.1,0
	c0,0-0.1,0.1-0.1,0.1c0,0.2,0,0.3,0.2,0.4C55,27.9,55,27.9,55.1,27.9z"/>
<path class="st0" d="M49.6,39.1L49.6,39.1C49.6,39,49.7,39,49.6,39.1c0.1-0.1,0.1-0.2,0.1-0.3c0,0,0,0,0-0.1c0,0,0-0.1,0-0.1
	c0,0,0,0-0.1,0c0,0,0,0-0.1,0c-0.1,0.1-0.2,0.2-0.2,0.3C49.4,39,49.5,39.1,49.6,39.1z"/>
<path class="st0" d="M49.2,38.8C49.2,38.8,49.2,38.8,49.2,38.8c0.1-0.1,0.2-0.1,0.3-0.2c0,0,0-0.1,0-0.1c0,0,0-0.1-0.1-0.1h0
	c-0.1,0-0.2,0-0.3,0.1c0,0,0,0.1,0,0.1C49,38.6,49.1,38.7,49.2,38.8z"/>
<path class="st0" d="M50.3,37.8L50.3,37.8C50.3,37.8,50.3,37.8,50.3,37.8c-0.1,0.1-0.2,0.1-0.3,0.2c0,0,0,0.1,0,0.1l0,0
	c0,0,0,0.1,0.1,0.1c0.1,0,0.3,0,0.4-0.1c0,0,0,0,0-0.1C50.5,37.9,50.4,37.8,50.3,37.8z"/>
<path class="st0" d="M49.9,37.5L49.9,37.5C49.9,37.5,49.8,37.5,49.9,37.5c-0.1,0.1-0.1,0.2-0.1,0.3c0,0,0,0,0,0.1c0,0,0,0.1,0,0.1
	c0,0,0,0,0.1,0c0,0,0,0,0.1,0c0.1-0.1,0.2-0.2,0.2-0.3C50.1,37.5,50,37.5,49.9,37.5z"/>
<path class="st0" d="M48.9,38.1C49,38.1,49,38.2,48.9,38.1c0.1,0.1,0.2,0.1,0.3,0.1c0,0,0,0,0.1,0c0,0,0.1,0,0.1,0c0,0,0,0,0-0.1
	c0,0,0,0,0-0.1c-0.1-0.1-0.2-0.2-0.3-0.2C49,37.9,48.9,38,48.9,38.1z"/>
<path class="st0" d="M50.5,38.4C50.5,38.3,50.5,38.3,50.5,38.4c-0.1-0.1-0.2-0.1-0.3-0.1c0,0,0,0-0.1,0h0c0,0-0.1,0-0.1,0.1
	c0,0,0,0,0,0.1c0,0,0,0,0,0.1c0.1,0.1,0.2,0.2,0.3,0.2C50.5,38.6,50.5,38.5,50.5,38.4z"/>
<circle class="st0" cx="49.7" cy="38.3" r="0.2"/>
<path class="st0" d="M49.6,37.9C49.6,37.9,49.7,37.9,49.6,37.9c0.1-0.2,0.1-0.3,0-0.4c0,0,0,0,0,0c0,0,0,0,0,0
	c-0.1,0-0.2,0.1-0.2,0.2c0,0,0,0,0,0c0.1,0.1,0.1,0.2,0.2,0.2C49.5,38,49.6,38,49.6,37.9z"/>
<path class="st0" d="M50,38.6C49.9,38.6,49.9,38.6,50,38.6c-0.1,0-0.2,0.1-0.2,0.1c0,0.1,0,0.3,0.1,0.3c0,0,0,0,0.1,0
	c0.1,0,0.2-0.1,0.2-0.2c0,0,0,0,0,0C50.2,38.7,50.1,38.6,50,38.6C50,38.6,50,38.6,50,38.6z"/>
<path class="st0" d="M51.6,23.4L51.6,23.4c-0.4,1.5,0.2,3,1.5,3.6l0.1,0.1l0-0.1C53.2,26.9,53.2,23.8,51.6,23.4L51.6,23.4z"/>
<path class="st0" d="M51.4,26.7c0,0.2,0,0.4,0,0.6c0,1.3,0.5,2.5,1.3,3.5l0.2,0.2l0-0.3c0-0.4,0-0.8,0.1-1.2
	c0.1-0.4,0.2-0.9,0.1-1.4c-0.2-0.5-0.5-0.9-1-1.1c-0.2-0.1-0.5-0.3-0.7-0.5l-0.2-0.2L51.4,26.7z"/>
<path class="st0" d="M56.9,27.3c-0.4,0.3-0.9,0.6-1.3,0.8c-0.2,0.1-0.3,0.1-0.5,0.2c-0.5,0.2-1,0.6-1.3,1c-0.3,0.5-0.4,1.1-0.4,1.8
	l0,0.2l0.1-0.1c0.3-0.3,0.7-0.6,1.1-0.8c0.4-0.2,0.8-0.5,1.2-0.8c0.5-0.5,0.8-1.1,1-1.7c0.1-0.2,0.1-0.4,0.2-0.6l0.1-0.3L56.9,27.3z
	"/>
<path class="st0" d="M49.1,40.9c0.8-0.2,1.5-0.7,1.9-1.5l0.1-0.1L51,39.3c-0.1,0-0.2,0.1-0.3,0.1c-0.2,0.1-0.4,0.2-0.7,0.2h-0.1
	c-0.2,0-0.3,0-0.5-0.1c-0.1,0-0.3-0.1-0.4-0.1c-0.1,0-0.2,0-0.4,0c-0.5,0-0.9,0.2-1.4,0.4l-0.1,0l-0.4,0.1l0.1,0.1
	c0.6,0.5,1.3,0.9,2,0.9C49,40.9,49,40.9,49.1,40.9z"/>
<path class="st0" d="M45.8,39.4l0,0.1L45.8,39.4c1.3,0.2,2.5-0.6,2.8-1.8c0.2-0.5,0.5-0.9,0.8-1.4l0.2-0.2l-0.3,0.1
	C47.8,36.8,46.6,37.9,45.8,39.4z"/>
<path class="st0" d="M43.6,40.3c-0.3,0-0.5,0.1-0.7,0.1c-0.3,0.1-0.7,0.2-1,0.1l-0.2,0l0.1,0.2c0.4,0.6,1.1,1,1.8,1
	c0.5,0,0.9-0.2,1.1-0.6l0,0l0,0C44.5,40.5,44.1,40.3,43.6,40.3z"/>
<path class="st0" d="M44.8,42c-0.1,0-0.3-0.1-0.4-0.1c-0.2,0-0.4,0.1-0.5,0.3c-0.3,0.6,0.3,2.1,0.8,2.6l0.1,0.1l0-0.2
	c0-0.1,0-0.2,0-0.3c0-0.2,0-0.3,0-0.5c0-0.2,0.1-0.4,0.3-0.5c0.1-0.1,0.1-0.1,0.1-0.2c0.1-0.2,0.2-0.5,0.1-0.8
	C45.2,42.2,45,42.1,44.8,42z"/>
<path class="st0" d="M52.7,31.5c-0.2-0.2-0.4-0.3-0.6-0.5c-0.1-0.2-0.3-0.4-0.3-0.7c0-0.1-0.1-0.2-0.1-0.3l0-0.1l-0.1,0.1
	c-0.6,0.6-0.7,1.4-0.3,2.2c0.2,0.2,0.4,0.4,0.7,0.5c0.4,0.1,0.8,0.4,1,0.8l0.6,1.1l0-0.2c0.1-0.7,0.1-1.4-0.2-2.1
	C53.2,31.9,53,31.7,52.7,31.5z"/>
<path class="st0" d="M55.9,23.9c0.4-0.7,0.2-1.6-0.3-2.2l-0.1-0.1l0,0.1c-0.1,0.1-0.1,0.2-0.1,0.3c-0.1,0.2-0.2,0.5-0.3,0.7
	c-0.2,0.2-0.4,0.4-0.6,0.5c-0.2,0.2-0.5,0.4-0.6,0.7c-0.2,0.7-0.3,1.4-0.2,2.1l0,0.2l0.6-1.1c0.2-0.4,0.6-0.7,1-0.8
	C55.5,24.3,55.7,24.1,55.9,23.9z"/>
<path class="st0" d="M50.3,37l-0.4,0.1l0.5,0c0.2,0,0.5,0.1,0.6,0.3c0.3,0.2,0.6,0.4,0.9,0.4c0.2,0,0.3,0,0.5-0.1
	c0.5-0.2,0.9-0.6,1.1-1.1c0.3-0.4,0.5-0.8,1-1l0.2-0.1l-0.2-0.1c-0.2-0.1-0.3-0.1-0.5-0.1c-0.7,0-1.5,0.3-2.1,0.8
	C51.5,36.7,50.9,37,50.3,37z"/>
<path class="st0" d="M50.3,34.2L50.3,34.2l-0.1,0c-0.2,0.1-0.4,0.3-0.5,0.5c0,0.3,0.1,0.6,0.3,0.8c0.2,0.3,0.3,0.5,0.2,0.8l-0.3,0.6
	l0.1,0c0.4,0,0.7-0.2,1-0.5c0.1-0.2,0.2-0.4,0.1-0.7c0-0.2-0.1-0.4-0.3-0.5c-0.2-0.2-0.4-0.5-0.5-0.8C50.3,34.3,50.3,34.3,50.3,34.2
	z"/>
<path class="st0" d="M48.6,42.7c0.3-0.2,0.6-0.4,1-0.6l0.3-0.1l-0.4,0c-0.4,0-0.9,0.1-1.3,0.2c-0.3,0.1-0.7,0.2-1.1,0.2
	c-0.1,0-0.2,0-0.3,0c-0.2,0-0.3,0-0.5,0c-0.2,0-0.3,0-0.4,0.1c-0.1,0.2-0.2,0.3-0.1,0.5c0.1,0.4,0.4,0.6,0.8,0.6
	c0.6-0.1,1.1-0.3,1.6-0.6C48.4,42.9,48.5,42.8,48.6,42.7z"/>
<path class="st0" d="M52.9,22.1c0,0,0,0.1,0,0.1c0,0.1,0,0.1,0.1,0.2l0,0c0.1,0.1,0.2,0.1,0.2,0.1c0,0,0.1,0,0.1,0
	c0.1-0.1,0.2-0.2,0.2-0.3c0,0,0,0,0,0c0,0,0,0,0,0c0,0,0,0,0,0c0-0.1-0.1-0.2-0.2-0.2c0,0-0.1,0-0.1,0c-0.1,0-0.1,0-0.2,0.1
	C53,22,52.9,22,52.9,22.1z"/>
<path class="st0" d="M53.6,20.6L53.6,20.6L53.6,20.6L53.6,20.6L53.6,20.6L53.6,20.6c-0.2,0.3-0.4,0.5-0.5,0.8c0,0.1,0,0.3,0.2,0.3
	C53.9,21.8,53.6,20.6,53.6,20.6L53.6,20.6z"/>
<path class="st0" d="M53,21.4L53,21.4c0,0,0-0.1,0-0.1c-0.1-0.3-0.3-0.5-0.5-0.7v0c0,0.3,0,0.7,0.1,1c0,0.1,0.2,0.2,0.3,0.2h0.1l0,0
	c0,0,0,0,0,0c0,0,0,0,0,0l0,0c0,0,0-0.1,0-0.1l0,0L53,21.4L53,21.4z"/>
<path class="st0" d="M54,21.5C54,21.5,54,21.5,54,21.5c-0.2,0.1-0.3,0.2-0.4,0.3c0,0.1,0,0.2,0,0.3c0.2,0.1,0.3,0.1,0.5,0
	c0.2-0.1,0.3-0.2,0.4-0.4c0,0,0,0,0,0c0,0,0,0,0,0c0,0,0-0.1,0-0.1C54.3,21.4,54.1,21.4,54,21.5z"/>
<path class="st0" d="M51.8,21.4L51.8,21.4c0.1,0.2,0.2,0.3,0.3,0.5c0.1,0.1,0.3,0.3,0.4,0.3l0,0h0c0,0,0.1,0,0.1,0
	c0.2,0,0.1-0.3,0.1-0.3c-0.1,0-0.3-0.3-0.3-0.3C52.2,21.5,52,21.5,51.8,21.4z"/>
<path class="st0" d="M54.4,22.8c0.1,0,0.1,0,0.2,0h0.1c-0.1-0.2-0.2-0.4-0.3-0.5c-0.1,0-0.2-0.1-0.2-0.1c0,0,0,0-0.1,0l0,0
	c-0.1,0-0.3,0-0.3,0.2c0,0,0,0,0,0.1c0.1,0.1,0.2,0.1,0.2,0.2C54,22.7,54.2,22.8,54.4,22.8L54.4,22.8L54.4,22.8z"/>
<path class="st0" d="M53.7,23.5C53.7,23.5,53.8,23.5,53.7,23.5c0.1,0.1,0.1,0.1,0.1,0.1c0-0.3,0-0.6-0.1-0.8v0l0,0
	c-0.1-0.1-0.2-0.1-0.3-0.1l0,0c0,0,0,0-0.1,0h0c0,0-0.1,0.1-0.1,0.1C53.2,23.1,53.5,23.3,53.7,23.5z"/>
<path class="st0" d="M53.1,23.1C53.1,23.1,53.1,23,53.1,23.1c0-0.4-0.1-0.4-0.2-0.4c0,0,0,0-0.1,0c0,0,0,0-0.1,0
	c0,0.1-0.1,0.2-0.2,0.3c0,0.3,0,0.6,0,0.8c0.1-0.1,0.2-0.2,0.3-0.4c0-0.1,0.1-0.1,0.1-0.2C53.1,23.2,53.1,23.2,53.1,23.1L53.1,23.1
	C53.1,23.1,53.1,23.1,53.1,23.1z"/>
<path class="st0" d="M52.7,22.5c0,0,0-0.4-0.4-0.2c0,0-0.4,0.2-0.4,0.3c0.2,0.1,0.4,0.1,0.6,0.1c0,0,0.1,0,0.1,0
	C52.6,22.7,52.7,22.6,52.7,22.5z"/>
<path class="st0" d="M55.5,32.4C55.5,32.4,55.5,32.4,55.5,32.4C55.5,32.4,55.5,32.4,55.5,32.4C55.5,32.3,55.5,32.3,55.5,32.4
	c-0.1-0.2-0.2-0.2-0.3-0.3c0,0-0.1,0-0.1,0c-0.1,0-0.1,0-0.2,0.1c0,0-0.1,0.1-0.1,0.1c0,0,0,0.1,0,0.1c0,0.1,0,0.1,0.1,0.2l0,0
	c0.1,0.1,0.2,0.1,0.3,0.1c0,0,0.1,0,0.1,0C55.4,32.6,55.5,32.5,55.5,32.4z"/>
<path class="st0" d="M55.4,30.8L55.4,30.8L55.4,30.8L55.4,30.8L55.4,30.8L55.4,30.8c-0.2,0.3-0.3,0.5-0.3,0.8c0,0.1,0.1,0.3,0.2,0.3
	C55.9,32,55.4,30.8,55.4,30.8L55.4,30.8z"/>
<path class="st0" d="M54.9,31.5c-0.1-0.2-0.4-0.4-0.6-0.6c0,0,0,0,0,0c0,0.3,0.1,0.6,0.3,0.9c0.1,0.1,0.2,0.2,0.3,0.2l0,0
	c0,0,0,0,0,0l0,0c0,0,0,0,0,0c0,0,0,0,0,0v0c0,0,0-0.1,0-0.1l0,0l0-0.2L54.9,31.5L54.9,31.5C54.9,31.6,54.9,31.6,54.9,31.5z"/>
<path class="st0" d="M55.6,32.2c0.2,0,0.3,0,0.5-0.1c0.2-0.1,0.3-0.3,0.3-0.5c0,0,0,0,0,0c0,0,0,0,0,0c0,0,0-0.1,0-0.1
	c-0.2,0-0.4,0-0.5,0.1c0,0,0,0,0,0c-0.2,0.1-0.3,0.2-0.3,0.3C55.5,32,55.5,32.1,55.6,32.2z"/>
<path class="st0" d="M53.7,31.9c0.1,0.1,0.2,0.3,0.4,0.4c0.1,0.1,0.3,0.2,0.5,0.3v0l0,0c0,0,0.1,0,0.1,0c0.2-0.1,0.1-0.3,0.1-0.3
	c-0.1,0-0.4-0.2-0.4-0.2C54.1,31.9,53.9,31.9,53.7,31.9L53.7,31.9z"/>
<path class="st0" d="M56.3,32.4c-0.1,0-0.2-0.1-0.2-0.1c0,0,0,0-0.1,0h0c-0.1,0-0.3,0-0.3,0.2c0,0,0,0,0,0.1c0.1,0,0.2,0.1,0.3,0.2
	c0.1,0,0.3,0,0.4,0h0c0.1,0,0.1,0,0.2,0l0,0l0,0l0,0C56.6,32.6,56.4,32.5,56.3,32.4z"/>
<path class="st0" d="M55.8,32.8c-0.1-0.1-0.2-0.1-0.3,0l0,0c0,0,0,0-0.1,0h0c0,0-0.1,0.1-0.1,0.1c0,0.3,0.3,0.5,0.5,0.6
	c0,0,0.1,0,0.1,0c0,0,0,0,0,0C56,33.4,56,33.1,55.8,32.8C55.8,32.9,55.8,32.9,55.8,32.8z"/>
<path class="st0" d="M55,32.9C55,32.9,55,32.9,55,32.9c-0.1,0-0.1,0-0.1,0c0,0.1-0.1,0.2-0.2,0.3c0,0.3,0.1,0.6,0.1,0.8
	c0.1-0.1,0.2-0.3,0.3-0.4c0-0.1,0.1-0.1,0.1-0.2c0-0.1,0-0.1,0-0.2v0c0,0,0,0,0-0.1C55.2,32.9,55,32.9,55,32.9z"/>
<path class="st0" d="M54.3,32.7c0,0-0.3,0.3-0.4,0.4c0.2,0.1,0.4,0.1,0.6,0.1c0,0,0.1,0,0.1,0c0.1-0.1,0.1-0.2,0.1-0.3
	C54.8,32.8,54.7,32.4,54.3,32.7z"/>
<path class="st0" d="M51.4,34.1c0,0,0,0.1,0,0.1c0,0,0,0.1,0,0.1l0,0c0,0.1,0.1,0.1,0.2,0.1c0,0,0,0,0.1,0c0.1,0,0.1-0.1,0.2-0.2
	l0,0l0,0c0,0,0,0,0,0c0-0.1-0.1-0.1-0.2-0.1c0,0,0,0-0.1,0c0,0-0.1,0-0.1,0C51.5,34,51.4,34.1,51.4,34.1z"/>
<path class="st0" d="M52,33L52,33C52,33,51.9,33,52,33L52,33L52,33c-0.2,0.2-0.3,0.4-0.3,0.6c0,0.1,0,0.2,0.1,0.3
	C52.2,33.9,52,33,52,33L52,33z"/>
<path class="st0" d="M51.5,33.6L51.5,33.6C51.5,33.5,51.5,33.5,51.5,33.6c-0.1-0.3-0.3-0.5-0.4-0.6l0,0c0,0.2,0,0.5,0.1,0.7
	c0,0.1,0.1,0.2,0.2,0.2h0l0,0c0,0,0,0,0,0c0,0,0,0,0,0l0,0c0,0,0,0,0-0.1l0,0L51.5,33.6L51.5,33.6z"/>
<path class="st0" d="M52.2,33.6L52.2,33.6c-0.1,0-0.2,0.1-0.3,0.2c0,0.1,0,0.1,0,0.2c0.1,0,0.2,0,0.4,0c0.1-0.1,0.2-0.2,0.3-0.3
	c0,0,0,0,0,0c0,0,0,0,0,0c0,0,0-0.1,0-0.1C52.5,33.6,52.4,33.6,52.2,33.6z"/>
<path class="st0" d="M50.6,33.6L50.6,33.6c0.1,0.1,0.1,0.2,0.2,0.3c0.1,0.1,0.2,0.2,0.3,0.2h0c0,0,0.1,0,0.1,0
	c0.1,0,0.1-0.2,0.1-0.2c-0.1,0-0.3-0.2-0.3-0.2C50.9,33.7,50.7,33.6,50.6,33.6z"/>
<path class="st0" d="M52.5,34.6L52.5,34.6c0.1,0,0.1,0,0.2,0h0c0-0.1-0.1-0.3-0.2-0.4c-0.1,0-0.1-0.1-0.2-0.1l0,0h0
	c-0.1,0-0.2,0-0.2,0.1c0,0,0,0,0,0c0.1,0,0.1,0.1,0.2,0.2C52.3,34.6,52.4,34.6,52.5,34.6z"/>
<path class="st0" d="M52.1,34.6C52,34.6,52,34.6,52.1,34.6c-0.1-0.1-0.2-0.1-0.2-0.1h0l0,0v0c0,0-0.1,0.1-0.1,0.1
	c0,0.3,0.1,0.4,0.3,0.5c0,0,0,0,0.1,0c0,0,0,0,0,0C52.2,35,52.1,34.8,52.1,34.6L52.1,34.6z"/>
<path class="st0" d="M51.5,35.1c0,0,0.1-0.1,0.1-0.1c0,0,0-0.1,0-0.1h0l0,0c0,0,0,0,0,0c0-0.3-0.1-0.3-0.1-0.3c0,0,0,0,0,0
	c0,0,0,0,0,0c0,0.1-0.1,0.2-0.2,0.2c0,0.2,0,0.4,0,0.6C51.3,35.3,51.4,35.2,51.5,35.1z"/>
<path class="st0" d="M51.3,34.4c0,0,0-0.3-0.3-0.1c0,0-0.3,0.2-0.3,0.2c0.1,0.1,0.3,0.1,0.4,0.1c0,0,0.1,0,0.1,0
	C51.2,34.6,51.3,34.5,51.3,34.4z"/>
<path class="st0" d="M45.8,41.2c0,0.1,0.1,0.1,0.2,0.1c0,0,0.1,0,0.1,0c0.1,0,0.1-0.1,0.2-0.2l0,0c0,0,0,0,0,0c0,0,0,0,0,0
	c0-0.1-0.1-0.1-0.2-0.1c0,0,0,0-0.1,0c0,0-0.1,0-0.1,0c0,0-0.1,0.1-0.1,0.1c0,0,0,0.1,0,0.1C45.7,41.1,45.7,41.2,45.8,41.2
	L45.8,41.2z"/>
<path class="st0" d="M46.3,39.8L46.3,39.8L46.3,39.8L46.3,39.8L46.3,39.8L46.3,39.8c-0.2,0.2-0.3,0.4-0.4,0.6c0,0.1,0,0.2,0.1,0.3
	C46.5,40.8,46.3,39.8,46.3,39.8z"/>
<path class="st0" d="M45.7,40.7L45.7,40.7L45.7,40.7C45.8,40.7,45.8,40.7,45.7,40.7C45.8,40.7,45.8,40.7,45.7,40.7L45.7,40.7
	c0.1-0.1,0.1-0.1,0.1-0.1l0,0v-0.2c0,0,0,0,0,0l0,0c0,0,0,0,0-0.1c-0.1-0.2-0.2-0.4-0.4-0.5v0c0,0.3,0,0.5,0.1,0.7
	C45.5,40.6,45.6,40.7,45.7,40.7L45.7,40.7z"/>
<path class="st0" d="M46.6,40.9c0.1-0.1,0.2-0.2,0.3-0.3l0,0l0,0c0,0,0-0.1,0-0.1c-0.1,0-0.3,0-0.4,0l0,0c-0.1,0-0.2,0.1-0.3,0.2
	c0,0.1,0,0.1,0,0.2C46.4,41,46.5,41,46.6,40.9z"/>
<path class="st0" d="M45.4,40.6c-0.2-0.1-0.3-0.1-0.5-0.1v0c0.1,0.1,0.2,0.2,0.3,0.3c0.1,0.1,0.2,0.2,0.3,0.2h0c0,0,0.1,0,0.1,0
	c0.1,0,0.1-0.2,0.1-0.2C45.5,40.8,45.4,40.6,45.4,40.6z"/>
<path class="st0" d="M46.8,41.5L46.8,41.5c0.1,0,0.1,0,0.2,0h0c0-0.1-0.1-0.3-0.3-0.4c-0.1,0-0.1-0.1-0.2-0.1c0,0,0,0,0,0l0,0
	c-0.1,0-0.2,0-0.2,0.2c0,0,0,0,0,0c0.1,0,0.1,0.1,0.2,0.2C46.6,41.5,46.7,41.5,46.8,41.5z"/>
<path class="st0" d="M46.4,42C46.4,42,46.4,42.1,46.4,42C46.4,42.1,46.4,42.1,46.4,42c0.1-0.2,0.1-0.4,0-0.6l0,0c0,0,0,0,0,0
	c0-0.1-0.1-0.1-0.2-0.1l0,0c0,0,0,0,0,0c0,0-0.1,0.1-0.1,0.1C46,41.7,46.2,41.9,46.4,42z"/>
<path class="st0" d="M45.9,41.7C45.9,41.7,45.9,41.7,45.9,41.7C45.9,41.7,45.9,41.7,45.9,41.7c0-0.3-0.1-0.4-0.1-0.4c0,0,0,0,0,0
	c0,0,0,0,0,0c0,0.1-0.1,0.2-0.2,0.2c0,0.2,0,0.4,0,0.6c0.1-0.1,0.2-0.2,0.2-0.3c0,0,0.1-0.1,0.1-0.1C45.9,41.8,45.9,41.8,45.9,41.7z
	"/>
<path class="st0" d="M45.6,41.3c0,0,0-0.3-0.3-0.1c0,0-0.3,0.2-0.3,0.3c0.1,0.1,0.3,0.1,0.5,0.1c0,0,0.1,0,0.1,0
	C45.5,41.5,45.6,41.4,45.6,41.3z"/>
<polygon class="st0" points="38.2,22.2 38.2,22.2 38.2,22 38.2,21.8 38.2,21.5 38.2,21.3 38.2,21 38.2,20.8 38.2,20.8 38,20.8 
	37.9,20.8 37.7,20.8 37.5,20.8 37.4,20.8 37.4,21.6 37.4,21.7 37.4,21.8 37.4,22 37.4,22.2 38,22.2 "/>
<polygon class="st0" points="40.3,22.2 40.8,22.2 40.8,22 40.8,21.8 40.8,21.7 40.8,21.6 40.8,20.8 40.8,20.8 40.5,20.8 40.4,20.8 
	40.2,20.8 40,20.8 40,20.8 40,21 40,21.3 40,21.5 40,21.8 40,22 40,22.2 40.1,22.2 "/>
<path class="st0" d="M35.7,45.3c1.5,0.3,3-0.7,3.2-2.3c0,0,0,0,0,0c0.2-1.2,0.2-2.3,0-3.5c-0.6-3.1-3.5-1.6-3.5-1.6
	c0,0-0.1,0-0.1,0.1c-0.2-0.1-0.4-0.2-0.5-0.3c-0.9-0.6-1.7-1.3-2.4-2.1l0.3-0.5l0.6,0.1l-0.4-0.4l0.1-0.4l0.1,0.1
	c0.5,0.6,1,1.1,1.6,1.5c0.3,0.2,0.6,0.4,0.9,0.5l0.1,0.1l0.1-0.1h0c0.5-0.3,1-0.5,1.6-0.6h0c0.5-0.1,1.1-0.2,1.6-0.2h0.1
	c0.6,0,1.1,0.1,1.6,0.2c0.6,0.1,1.1,0.3,1.6,0.6h0l0.1,0.1l0.1-0.1c0.3-0.2,0.6-0.3,0.9-0.5c0.6-0.4,1.2-0.9,1.6-1.5l0.1-0.1
	l0.1,0.4L45,35l0.6-0.1l0.3,0.5l0.1-0.6l0.5-0.1l0,0l0,0l0,0c0,0,0,0,0,0l0,0c0,0,0,0,0,0l0,0l0,0l0,0v0L46.3,35h0c0,0,0,0,0,0l0,0
	l-0.1,0.1c-0.8,0.9-1.7,1.7-2.7,2.5c-0.2,0.1-0.4,0.2-0.5,0.3c0,0-0.1,0-0.1-0.1c0,0-2.9-1.5-3.5,1.6c-0.2,1.2-0.2,2.3,0,3.5
	c0.2,1.5,1.7,2.6,3.2,2.3c0,0,0,0,0,0c0.1,0,0.1,0,0.1,0c0.4,0,0.7-0.2,0.9-0.6c0.1-0.3,0.1-0.7,0-1c0-0.1,0-0.3-0.1-0.4L43.3,43
	c-0.1-0.2-0.3-0.3-0.5-0.4c-0.4-0.2-0.8-0.3-1.2-0.3c-0.1,0-0.2,0-0.3,0c-0.1-0.5-0.1-1.1,0-1.7c0-0.2,0-0.3,0.1-0.5
	c0.3,0,0.5,0,0.7,0c0.2,0,0.4,0,0.6,0c0,0,0.1,0,0.1,0c1.8-0.5,4.9-3.8,4.9-3.8c0.1-0.1,0.2-0.2,0.2-0.2c0,0,0.1-0.1,0.1-0.2
	c0,0,0.3-0.3,0.3-0.3c0.1-0.1,0.2-0.2,0.3-0.3l0,0c0,0,0.1-0.1,0.1-0.1c0,0,0.1-0.1,0.2-0.2c0.4-0.5,0.7-1,1-1.5c0,0,0,0,0-0.1
	c0,0,0-0.1,0-0.1h0c0-0.1,0.1-0.1,0.1-0.2c0.6-1.6,0.9-3.2,0.8-4.9v-0.1h0c0-0.4,0.1-2.4,0-3.7c0-0.1,0-0.3,0-0.3c0,0,0-0.1,0-0.1
	c0,0,0,0,0-0.1l0,0c0-0.7,0-1.4,0-1.9c0-0.2,0-0.5,0-0.7l0,0c0,0,0-0.1,0-0.1l0,0c0-0.1,0-0.1,0-0.2c0-0.1,0-0.2,0-0.2
	c0-0.4,0.1-0.8,0.2-1.1c0-0.2,0.1-0.3,0.2-0.5c0.1-0.2,0.2-0.4,0.4-0.6c0.2-0.2,0.3-0.5,0.5-0.7c0.6-0.7,1.4-1.6,2.5-2.7l0,0
	l0.4-0.4c0.4-0.4,0.8-0.8,1.3-1.3l0.3-0.3l-5.3-5.2L50.9,9h0l-1.4,1.4c0,0-0.7-4.6-4.8-3.4c0,0-0.1,0-0.1,0c-0.1,0-0.5,0-0.5,0
	c-0.5,0-1,0.1-1.5,0.3l0-4.9L42,2.9c-0.5,0.5-1.1,0.7-1.8,0.8c0-0.4,0.1-0.9,0.2-1.3c0.2-0.5,0.4-0.9,0.7-1.3l0.1-0.1l0.2-0.2
	l-2.2,0h-0.1l-2.2,0l0.2,0.2l0.1,0.1c0.3,0.4,0.6,0.8,0.7,1.3c0.1,0.4,0.2,0.9,0.2,1.3c-0.7-0.1-1.3-0.4-1.8-0.8l-0.6-0.5l0,4.9
	c-0.6-0.3-1.3-0.4-2-0.3c0,0-0.1,0-0.1,0c-4.1-1.2-4.8,3.4-4.9,3.4L27.4,9h0l-0.7-0.8l-5.3,5.2l0.3,0.3c0.5,0.5,0.9,0.9,1.3,1.3
	l0.4,0.4l0,0c1.1,1.1,1.9,2,2.5,2.7c0.2,0.2,0.4,0.4,0.5,0.7c0.2,0.2,0.3,0.4,0.4,0.6c0.1,0.2,0.1,0.3,0.2,0.5
	c0.1,0.4,0.2,0.7,0.2,1.1c0,0,0,0.1,0,0.2c0,0.1,0,0.1,0,0.2l0,0c0,0,0,0.1,0,0.1l0,0c0,0.2,0,0.5,0,0.7c0,0.5,0,1.2,0,1.9l0,0
	c0,0,0,0,0,0.1c0,0,0,0.1,0,0.1c0,0.1,0,0.2,0,0.3c0,1.3,0,3.3,0,3.7h0v0.1c0,1.7,0.3,3.3,0.8,4.9c0,0.1,0.1,0.1,0.1,0.2h0
	c0,0,0,0.1,0,0.1c0,0,0,0,0,0.1c0.3,0.5,0.6,1,1,1.5c0.1,0.1,0.2,0.2,0.2,0.2c0,0,0.1,0.1,0.1,0.1l0,0c0.1,0.1,0.2,0.2,0.3,0.3
	c0,0,0.3,0.3,0.3,0.3c0,0,0.1,0.1,0.1,0.2c0,0,0.1,0.1,0.2,0.2c0,0,3.2,3.2,4.9,3.8c0,0,0.1,0,0.1,0c0.2,0,0.4,0,0.6,0
	c0.2,0,0.5,0,0.7,0c0,0.2,0.1,0.3,0.1,0.5c0,0.5,0,1.1,0,1.7c-0.1,0-0.2,0-0.3,0c-0.4,0-0.8,0.1-1.2,0.3c-0.2,0.1-0.4,0.2-0.5,0.4
	l-0.2,0.4c0,0.1-0.1,0.3-0.1,0.4c-0.1,0.3-0.1,0.6,0,1c0.2,0.4,0.5,0.6,0.9,0.6C35.6,45.3,35.6,45.3,35.7,45.3z M37.9,38.2
	c0,0,0.9,0.7,0.8,3.3c-0.1,2.9-1.2,3.4-2.1,3.6c0.8-0.4,1.4-1.2,1.5-2.2c0.2-1.5,0.3-3.3-0.6-4.4c-0.6-0.7-1.7-0.7-2.4-0.2
	C35.9,37.5,37.1,37.5,37.9,38.2z M32.6,34.3l-0.4-0.4l0.1,0.6l-0.4,0.2c-1-1.2-1.7-2.5-2.2-3.9c0-0.2-0.1-0.4-0.1-0.6c0,0,0,0,0,0
	l0-0.5c0-0.9,0-1.8,0.1-2.8v0c0-0.4,0.1-1.3,0.1-1.7l0-0.2l0-0.1l0-0.5c0-0.6,0-1.6,0-2.3c0-1.6-0.3-3.2-0.9-4.7l1.9-2.2l1.4-1.6
	c0.1,0,0.6,0.3,0.8,0.4c0.6,0.1,1.1,0,1.6-0.3c0.1,0,0.2,0,0.3,0c0,0,0,0,0,0c0.1,0,0.4-0.1,0.4-0.1c0,0,0,0,0.1,0
	c0.4-0.1,0.8-0.4,1.1-0.7c0,0,0,0,0,0c0,0,0,0,0,0c0,0,0,0,0,0c0,0,0,0,0,0c0,0,0,0,0,0l0,0l0,0c0,0,0,0,0-0.1c0,0,0,0,0,0l0,0
	c0.1-0.2,0.3-0.5,0.3-0.7c0.4,0,0.9,0,1.1,0h0.2l0,3.1c-1.1,0-2.2-0.1-3.3-0.3c-0.3-0.1-0.7-0.2-1-0.3l-0.1-0.1l-0.1,0.1
	c0,0-0.7,0.8-1.5,1.6c0,0.1-0.1,0.1-0.1,0.2l0,0c-0.3,0.4-0.6,0.7-0.8,0.9c-0.1,0.2-0.3,0.3-0.3,0.4c0,0-0.1,0.1-0.1,0.1
	c0,0,0,0,0,0c0,0-0.1,0.1,0,0.2c0,0,0,0,0,0.1l0,0c0.2,0.8,0.3,1.6,0.4,2.4c0,0,0,0.1,0,0.1l0,0.1c0,0.2,0,0.4,0,0.6
	c0,0.2,0,0.4,0,0.6c0,0.2,0,0.5,0,0.7c0,0.7,0,1.5-0.1,2.3v0l0,0c0,0.1,0,0.1,0,0.2l0,0.1h0c0,0.1,0,0.2,0,0.3l0,0.1
	c0,0.2,0,0.3,0,0.4v0c0,0.6,0,1-0.1,1.1c-0.1,0.6-0.1,1.6-0.1,1.6v0.2c0,0.3,0,0.7,0,1l0,0v0l0,0.2c0,0.2,0,0.4,0.1,0.5
	c0,0,0,0.1,0,0.1c0,0,0,0.1,0,0.1v0c0,0.1,0,0.2,0.1,0.3c0,0,0,0,0,0.1l0,0c0,0,0,0.1,0,0.1c0.1,0.4,0.3,0.8,0.4,1.1
	c0.2,0.3,0.4,0.6,0.6,0.9l0.4,0.5l0,0l0.1,0.1l0.1,0.1l0.1,0.1L32.6,34.3z M32.4,35.4c-0.1-0.1-0.2-0.2-0.3-0.3l-0.1-0.1l0,0
	c0,0,0,0,0,0l-0.1-0.1v0l0,0l0,0l0,0c0,0,0,0,0,0l0,0c0,0,0,0,0,0l0,0l0.5,0.1L32.4,35.4z M36.8,8.2C36.8,8.2,36.8,8.1,36.8,8.2
	C36.8,8.1,36.8,8.1,36.8,8.2c-0.1-0.1-0.1-0.1-0.1-0.1c0,0,0,0,0,0v0c-0.1-0.2-0.3-0.3-0.4-0.4c0.2-0.2,0.3-0.5,0.6-0.7
	c0.4-0.3,0.9-0.5,1.4-0.6v2.8h-1c0,0,0-0.1,0-0.1v0c0,0,0,0,0,0c0,0,0,0,0,0l0,0c0,0,0-0.1,0-0.1l0,0C37,8.6,37,8.4,36.9,8.3l0,0
	C36.9,8.3,36.8,8.2,36.8,8.2L36.8,8.2L36.8,8.2L36.8,8.2z M42.3,33.5C42.3,33.5,42.3,33.5,42.3,33.5c0,0.1,0,0.2,0,0.3l0,0V34
	c0,0,0,0,0,0h-6.4c0,0,0,0,0,0v-0.2l0,0c0-0.1,0-0.2,0-0.2c0,0,0,0,0,0c0,0,0,0,0-0.1v-0.2c0-0.1-0.1-0.2-0.2-0.2h-0.2
	c0-0.3-0.2-0.5-0.4-0.5l0-0.7c0.1,0.1,0.1,0.1,0.2,0.1h0c0,0,0.1,0,0.1,0c0-0.1,0-0.1,0-0.2c0,0,0,0,0,0c0,0,0.1-0.1,0.1-0.1
	c0.2-0.1,0.3-0.3,0.3-0.5c0-0.2-0.3-0.4-0.5-0.5c0.1,0,0.2-0.1,0.3-0.2c0,0,0.1-0.1,0-0.2c-0.1-0.2-0.1-0.5,0-0.7
	c0-0.1,0.1-0.2,0.1-0.3c0,0,0,0,0,0c0,0,0,0,0,0c0-0.1-0.1-0.3-0.2-0.3c-0.2-0.1-0.3-0.2-0.5-0.3l0,0l0-0.6v-0.1c0,0,0-0.1,0-0.1
	h0.1c0.1,0,0.1-0.1,0.1-0.1c0,0,0,0,0,0c0,0,0,0,0-0.1v0c0-0.1,0-0.2,0-0.2c0-0.1-0.1-0.1-0.1-0.1H35v-0.3l0-0.1c0-0.1,0-0.2,0-0.2
	h0c0,0,0,0,0,0c0.2-0.1,0.4-0.3,0.4-0.5v0c0,0,0,0,0,0h0.1c0.1,0,0.2-0.1,0.2-0.2v-0.1c0,0,0-0.1,0-0.1h6.7c0,0,0,0.1,0,0.1v0.1
	c0,0.1,0.1,0.2,0.2,0.2h0.1c0,0,0,0,0,0v0c0,0.2,0.2,0.5,0.4,0.5c0,0,0,0,0,0h0c0,0.1,0,0.2,0,0.2l0,0.1v0.3h-0.1
	c-0.1,0-0.1,0-0.1,0.1c0,0.1,0,0.2,0,0.2v0c0,0,0,0,0,0.1c0,0,0,0.1,0,0.1c0,0,0.1,0,0.1,0h0.1c0,0,0,0.1,0,0.1l0,0V28l0,0.6l0,0
	c-0.2,0.1-0.3,0.2-0.5,0.3c-0.1,0.1-0.2,0.2-0.2,0.3c0,0,0,0,0,0c0,0,0,0,0,0c0,0.1,0.1,0.2,0.1,0.3c0.1,0.2,0.1,0.5,0,0.7
	c0,0.1,0,0.1,0,0.2c0.1,0.1,0.2,0.2,0.3,0.2c-0.3,0.1-0.5,0.3-0.5,0.5c0,0.2,0.1,0.4,0.3,0.5c0,0,0.1,0.1,0.1,0.1c0,0,0,0,0,0
	c0,0.1,0,0.1,0,0.2c0,0,0,0,0.1,0h0c0.1,0,0.2-0.1,0.2-0.1l0,0.7c-0.2,0.1-0.4,0.3-0.4,0.5h-0.2c-0.1,0-0.2,0.1-0.2,0.2L42.3,33.5
	C42.3,33.5,42.3,33.5,42.3,33.5L42.3,33.5z M32.8,25.9c0,0.1,0.1,0.1,0.1,0.1h0.2c0,0.3,0.2,0.5,0.4,0.6c0,0,0,0,0,0h0l0,0.3v0
	c0,0,0,0,0,0.1v0c0,0,0,0.1,0,0.1h-0.1c-0.1,0-0.2,0.1-0.2,0.2v0.1c0,0.1,0,0.1,0,0.2c0,0.1,0.1,0.1,0.1,0.1h0.1l0,0.6h0
	c-0.1,0-0.3,0-0.4-0.1c0,0,0,0,0-0.1L33,27.9c0-0.1,0-0.1-0.1-0.1l0,0l0,0c-0.1,0.1-0.2,0.2-0.2,0.3c0,0.1,0,0.4,0,0.4
	c0,0.5,0.4,0.8,0.8,0.9l0,0.2v0c0,0,0,0,0,0c0,0,0,0.1,0,0.1c-0.1,0-0.1,0-0.2,0.1c-0.2,0.1-0.4,0.3-0.5,0.5l0,0l0,0
	c0.1,0.2,0.1,0.4,0.2,0.6l0,0v0l0,0l0,0c0,0.1,0.1,0.1,0.1,0.2l0,0c0.1,0.1,0.1,0.1,0.2,0.2l0,1v0.1c0,0,0,0.1,0,0.1c0,0,0,0-0.1,0
	c-0.2,0.1-0.4,0.3-0.4,0.5v0h-0.2c-0.1,0-0.1,0.1-0.2,0.1c0,0,0-0.1-0.1-0.1l0-0.1c-1.1-1.9-1.4-2.5-0.9-7.5h1.1v0.1
	C32.8,25.7,32.8,25.8,32.8,25.9z M35.5,23.3l0.3-0.3h0l0.1-0.2h0l0.3-0.3h0l0.1-0.2h0l0.1-0.1l0-0.6l0-0.1h0l0-0.2h0l0-0.3h0l0-0.2
	h0v-0.3l0-1l0,0h1.2v0h0.1v0h1.4v0h0.1v0h1.4v0h0.1v0h1.2l0,0l0,0.3h0l0,0.2h0l0,0.3h0l0,0.2h0v0.3h0l0,0.2h0v0.3h0l0,0.2h0l0,0.3h0
	V22h0v0.2l0.1,0.1h0l0.1,0.2h0l0.3,0.3h0l0.1,0.2h0l0.3,0.3h0l0.1,0.2h0l0.3,0.3h0l0.1,0.2v0l0.2,0.3l0.2,0.2h0.6v0.8h-4v-1.4
	c0-0.3-0.2-0.5-0.3-0.7c0-0.1-0.1-0.1-0.1-0.1c-0.1-0.1-0.2-0.1-0.3-0.1c0,0-0.1,0-0.1-0.1c-0.1,0-0.2,0-0.3,0c-0.1,0-0.1,0-0.1,0
	c0,0,0,0-0.1,0c-0.1,0-0.2,0-0.3,0c0,0-0.1,0-0.1,0c-0.1,0-0.2,0.1-0.3,0.1c-0.1,0-0.1,0.1-0.1,0.1c-0.2,0.2-0.3,0.5-0.4,0.7l0,0
	v1.4H34v-0.8h0.5l0.2-0.2L35.5,23.3L35.5,23.3z M45.4,28.3C45.4,28.3,45.4,28.3,45.4,28.3c0.1-0.1,0.1-0.1,0.1-0.1c0,0,0,0,0,0
	l0,0.2c0,0.4-0.3,0.7-0.7,0.8l0-0.8h0C45,28.4,45.2,28.4,45.4,28.3L45.4,28.3z M45.3,28.2l0.1-0.3c0,0,0,0,0,0
	c0.1,0.1,0.1,0.2,0.1,0.3C45.4,28.2,45.4,28.2,45.3,28.2L45.3,28.2L45.3,28.2z M44.9,29.9c0.2,0.1,0.4,0.2,0.4,0.4
	c0,0.2-0.1,0.4-0.2,0.6c0,0,0,0,0,0c0,0,0,0.1-0.1,0.1c-0.1-0.2-0.4-0.3-0.6-0.3c-0.2,0-0.3,0-0.5,0c-0.2,0-0.4,0-0.5,0
	c-0.3,0-0.5-0.1-0.7-0.3c0,0,0-0.1,0-0.1c0.1-0.3,0.1-0.5,0-0.8h0c0.3,0.2,0.7,0.3,1.1,0.3C44.2,29.7,44.5,29.7,44.9,29.9L44.9,29.9
	z M42.8,31.5c-0.1-0.1-0.2-0.2-0.2-0.4c0-0.2,0.4-0.4,0.6-0.4c0,0,0,0,0,0v0c0,0.1,0,0.2,0,0.3v0.2l0,0.4c0,0,0,0,0,0c0,0,0,0,0,0
	c0,0.1-0.1,0.2-0.2,0.3c0,0,0-0.1,0-0.1C42.9,31.7,42.9,31.6,42.8,31.5L42.8,31.5z M43.2,32.7h1.6c0,0,0,0,0,0
	c0.2,0.1,0.3,0.2,0.3,0.4c0,0,0,0,0,0l-2.3,0C42.9,32.9,43,32.7,43.2,32.7L43.2,32.7z M43.3,32.6l0-1.5c0-0.1,0-0.2,0-0.4l0,0l0,0
	c0,0,0,0,0,0c0.1,0,0.3,0,0.5,0l0.1,0c0.1,0,0.2,0,0.2,0c0,0,0,0,0,0l0,0c0.1,0,0.2,0,0.3,0c0,0,0,0,0,0c0,0,0,0,0,0l0,0
	c0,0,0,0,0,0l0,1.4c0,0,0,0.1,0,0.1c0,0.1,0,0.1,0,0.2c-0.1,0-0.2,0-0.3,0c-0.1,0-0.2,0-0.3,0c-0.1,0-0.2,0-0.3,0
	C43.6,32.6,43.4,32.6,43.3,32.6L43.3,32.6z M44.8,30.9c0,0,0.1,0,0.1,0.1c0,0,0,0.1,0.1,0.1c0,0-0.1,0.1-0.1,0.1L44.8,30.9z
	 M42.6,29.2c0-0.1,0.1-0.2,0.1-0.2c0.1-0.1,0.3-0.2,0.5-0.3l0,0l0,0.9l0,0l0,0c-0.2,0-0.3-0.1-0.4-0.2l0,0
	C42.7,29.3,42.6,29.2,42.6,29.2L42.6,29.2z M44.2,29.6c-0.2,0-0.3,0-0.5,0c0,0,0,0-0.1,0h-0.1l0,0l0,0c-0.1,0-0.1,0-0.2,0
	c0,0,0,0,0,0l0-1.6c0,0,0,0,0-0.1c0-0.1,0-0.1,0-0.2h1.2l0,0l0,1.8c0,0,0,0.1,0,0.1C44.5,29.6,44.4,29.6,44.2,29.6L44.2,29.6z
	 M43.2,27.6C43.2,27.6,43.2,27.5,43.2,27.6c0-0.1,0-0.2,0-0.3h1.7c0,0,0,0,0,0v0.1c0,0,0,0.1,0,0.1L43.2,27.6z M44.6,27.2h-0.7
	c-0.2,0-0.3,0-0.4,0v-0.3c0,0,0-0.1,0-0.1c0-0.1,0-0.2,0-0.3c0.4,0,0.7,0,1.1,0l0,0l0,0.4c0,0,0,0.1,0,0.1
	C44.6,27.1,44.6,27.2,44.6,27.2L44.6,27.2z M43.3,26.4C43.1,26.4,43,26.2,43,26v0c0,0,0,0,0-0.1c0,0,0,0,0,0l2.1,0c0,0,0,0,0,0
	c0,0.2-0.1,0.4-0.3,0.5L43.3,26.4z M42.7,25.8C42.7,25.8,42.7,25.8,42.7,25.8L42.7,25.8c0-0.1,0-0.2,0-0.2h2.7c0,0,0,0,0,0
	c0,0.1,0,0.1,0,0.2H42.7z M35.6,25.6c0,0,0,0.1,0,0.1c0,0,0,0,0,0.1c0,0,0,0,0,0h-2.7c0-0.1,0-0.1,0-0.2c0,0,0,0,0,0H35.6z
	 M35.6,29.4L35.6,29.4c-0.1,0.3-0.1,0.5,0,0.8c0,0,0,0.1,0,0.1c-0.2,0.2-0.4,0.3-0.7,0.3c-0.2,0-0.4,0-0.5,0c-0.2,0-0.3,0-0.5,0
	c-0.2,0-0.4,0.1-0.6,0.3c0,0,0-0.1-0.1-0.1c0,0,0,0,0,0c-0.1-0.2-0.1-0.4-0.2-0.6c0.1-0.2,0.2-0.4,0.4-0.4c0.4-0.1,0.7-0.2,1.1-0.2
	C34.9,29.7,35.2,29.6,35.6,29.4z M35,28.7L35,28.7c0.2,0.1,0.3,0.2,0.5,0.3c0.1,0,0.1,0.1,0.1,0.2c0,0.1-0.1,0.2-0.1,0.2l0,0
	c-0.1,0.1-0.3,0.1-0.4,0.2c0,0,0,0,0,0l0,0L35,28.7z M35.4,31.8c0,0,0,0.1,0,0.1c-0.1,0-0.2-0.1-0.2-0.3c0,0,0,0,0,0c0,0,0,0,0,0
	l0-0.4V31c0-0.1,0-0.2,0-0.3v0c0,0,0,0,0,0c0.3,0,0.6,0.2,0.6,0.4c0,0.2-0.1,0.3-0.2,0.4C35.4,31.6,35.3,31.7,35.4,31.8L35.4,31.8z
	 M33.5,32.7H35c0.2,0,0.4,0.2,0.4,0.5l-2.3,0c0,0,0,0,0,0C33.1,32.9,33.2,32.8,33.5,32.7C33.4,32.7,33.4,32.7,33.5,32.7L33.5,32.7z
	 M33.4,31.2c-0.1,0-0.1-0.1-0.1-0.1c0,0,0-0.1,0.1-0.1c0,0,0.1,0,0.1-0.1L33.4,31.2z M33.5,32.4C33.5,32.4,33.5,32.4,33.5,32.4
	l0-1.5c0,0,0,0,0,0l0,0c0,0,0,0,0,0c0,0,0,0,0,0c0.1,0,0.2,0,0.3,0l0,0l0,0c0.1,0,0.2,0,0.3,0l0.1,0c0.2,0,0.3,0,0.5,0c0,0,0,0,0,0
	l0,0l0,0c0,0.1,0,0.2,0,0.4l0,1.5c-0.1,0-0.3,0-0.5,0c-0.1,0-0.2,0-0.3,0c-0.1,0-0.2,0-0.3,0c-0.1,0-0.2,0-0.3,0
	C33.5,32.5,33.5,32.5,33.5,32.4L33.5,32.4z M32.9,28.3c0.2,0.1,0.4,0.1,0.6,0.1h0l0,0.8c-0.4-0.1-0.7-0.4-0.7-0.8l0-0.2c0,0,0,0,0,0
	l0,0C32.8,28.3,32.9,28.3,32.9,28.3L32.9,28.3z M32.8,28.1c0-0.1,0-0.2,0.1-0.3c0,0,0,0,0,0l0.1,0.3l0,0h0
	C32.9,28.2,32.8,28.2,32.8,28.1z M34.9,29.6c-0.1,0-0.1,0-0.2,0l0,0l0,0h-0.1c0,0,0,0-0.1,0c-0.2,0-0.3,0-0.5,0
	c-0.1,0-0.3,0-0.4,0.1c0,0,0-0.1,0-0.1l0-1.8c0,0,0,0,0,0h1.2c0,0.1,0,0.1,0,0.2c0,0,0,0,0,0.1L34.9,29.6
	C34.9,29.6,34.9,29.6,34.9,29.6z M33.4,27.6c0,0,0-0.1,0-0.1c0,0,0-0.1,0-0.1c0,0,0,0,0,0h1.7c0,0.1,0,0.1,0,0.2c0,0,0,0,0,0.1
	L33.4,27.6z M33.7,27c0,0,0-0.1,0-0.1l0-0.4c0,0,0,0,0,0c0.4,0,0.7,0,1.1,0c0,0.1,0,0.2,0,0.3v0.4c-0.1,0-0.2,0-0.4,0h-0.7
	C33.7,27.2,33.7,27.1,33.7,27z M33.5,26.4c-0.2-0.1-0.3-0.3-0.3-0.5c0,0,0,0,0,0l2.1,0c0,0,0,0,0,0c0,0,0,0,0,0.1v0
	c0,0.2-0.1,0.4-0.3,0.4L33.5,26.4z M32.7,33.3L32.7,33.3l3,0l0,0v0.2l-2.9,0c0,0,0,0-0.1-0.1C32.8,33.4,32.8,33.4,32.7,33.3
	L32.7,33.3z M42.5,33.3C42.5,33.3,42.5,33.2,42.5,33.3l3,0l0,0v0.1c0,0,0,0,0,0c0,0,0,0.1-0.1,0.1l-2.9,0L42.5,33.3z M45.5,33.1
	h-0.2c0,0,0,0,0,0c0-0.2-0.2-0.4-0.4-0.5c0,0,0,0,0,0c0,0,0-0.1,0-0.1v-0.1l0-1c0.1,0,0.2-0.1,0.2-0.2l0,0c0,0,0.1-0.1,0.1-0.2
	c0,0,0,0,0,0v0c0,0,0,0,0,0l0,0c0.1-0.2,0.2-0.4,0.2-0.6l0,0v0c-0.1-0.2-0.2-0.4-0.5-0.5c-0.1,0-0.1,0-0.2-0.1c0,0,0-0.1,0-0.1v-0.1
	l0-0.2c0.5-0.1,0.8-0.4,0.8-0.9c0,0,0-0.3,0-0.4c0-0.1-0.1-0.2-0.2-0.3l0,0l0,0c-0.1,0-0.1,0.1-0.1,0.1l-0.1,0.3c0,0,0,0,0,0.1
	c-0.1,0-0.3,0.1-0.4,0.1h0l0-0.6h0.1c0.1,0,0.1,0,0.1-0.1c0-0.1,0-0.1,0-0.2v-0.1c0-0.1-0.1-0.2-0.2-0.2h-0.1c0,0,0-0.1,0-0.1v0
	c0,0,0,0,0-0.1v0l0-0.3h0c0,0,0,0,0,0c0.2-0.1,0.4-0.3,0.4-0.6h0.2c0.1,0,0.1,0,0.1-0.1c0-0.1,0-0.1,0-0.2v-0.1h1.1
	c0.6,5,0.2,5.6-0.9,7.5l0,0.1c0,0,0,0.1-0.1,0.1C45.6,33.2,45.5,33.1,45.5,33.1L45.5,33.1z M46.5,20.6c0,0.5,0,1,0,1.6
	c0,0.3,0,0.5,0,0.8c0,0.8,0,1.5,0,2.2h-2v-1.1h-0.8l-1.6-2.1l0-2.8h-6.1l0,2.8l-1.6,2.1h-0.8v1.1h-2c0-0.7,0-1.4,0-2.2
	c0-0.3,0-0.6,0-0.8c0-0.6,0-1.1,0-1.6c0-0.6-0.3-2.6-0.4-2.9c0,0,0-0.1,0.1-0.1c0.3-0.4,1.4-1.6,2.6-2.9c1.4,0.4,2.8,0.5,4.2,0.5
	l0,2.5l-0.2,0l-0.2-1.1h0.1c0-0.1,0-0.1,0-0.2c0-0.1,0-0.3,0-0.4c-0.1,0-0.2,0-0.3,0v0.2l-0.3,0v-0.1c0,0,0-0.1,0-0.1
	c-0.1,0-0.2,0-0.3,0c0,0.2,0,0.2,0,0.2l0,0h-0.3v0c0,0,0-0.1,0-0.1v-0.1l-0.3,0l0,0v0.5h0.1l-0.2,1.1l-0.3,0v1.3h6.1
	c0-0.1,0-1.3,0-1.3h-0.3l-0.2-1.1h0.1c0-0.1,0-0.1,0-0.2c0-0.1,0-0.3,0-0.4c-0.1,0-0.2,0-0.3,0v0.2l-0.3,0l0-0.1c0,0,0-0.1,0-0.1
	c-0.1,0-0.2,0-0.3,0c0,0.2,0,0.2,0,0.2l0,0h-0.3v0c0,0,0-0.1,0-0.1v-0.1l-0.3,0l0,0l0,0.5h0.1l-0.2,1.1l-0.1,0v-2.5
	c1.4,0,2.9-0.2,4.2-0.5c1.2,1.3,2.3,2.5,2.6,2.9c0,0,0.1,0.1,0.1,0.1C46.9,18,46.6,20,46.5,20.6L46.5,20.6z M37.8,18
	c0,0,0,0.1,0,0.1l0,0l-0.5,0v0l-0.4,0v-0.4l-0.4,0l0-0.2l0-0.2l0-0.2h0l0-0.2h0l0-0.3h0.1v0l0.1,0v0c0.1,0,0.2,0,0.3,0
	c0,0,0.1,0,0.1,0l0.4,0l0.1,0.3h0l0,0.2h0l0,0.1l0.1,0.5l-0.1,0v0.1h0V18L37.8,18z M41.3,17.7l0,0.4h-0.9l0,0h0V18h0l0-0.2h0v-0.1
	c0,0,0,0,0,0h-0.1v0l0,0l0.2-1.1h1l0.2,0.9h0l0,0.2h0c-0.1,0-0.2,0-0.3,0v0L41.3,17.7z M40.3,18v0.4h1.2l0-0.4H42l0,0.9h-5.8V18h0.5
	v0.4h1.2l0-0.4h0.5l0,0.4h1.3V18L40.3,18z M38.3,11.4h-1.2c0.1-0.5,0.2-1.1,0.2-1.7c0-0.1,0-0.2,0-0.3h1L38.3,11.4z M33,33.7
	c0,0-0.1-0.1-0.1-0.1h2.8c0,0.1,0,0.1,0,0.2v0.1h-2.5C33.2,33.9,33.1,33.8,33,33.7L33,33.7z M42.5,36c-0.5-0.3-1.1-0.5-1.6-0.6
	c-0.6-0.1-1.1-0.2-1.7-0.2h-0.1c-0.6,0-1.1,0.1-1.7,0.2c-0.6,0.1-1.1,0.4-1.6,0.6c-0.8-0.4-1.6-1-2.2-1.7h11.2
	C44.1,35,43.4,35.5,42.5,36L42.5,36z M45.1,33.9h-2.5c0,0,0-0.1,0-0.1c0-0.1,0-0.2,0-0.2h2.8c0,0-0.1,0.1-0.1,0.1
	C45.2,33.8,45.1,33.9,45.1,33.9L45.1,33.9z M46,34.5l0.1-0.6l-0.4,0.4l-0.4-0.2l0.1-0.1l0.1-0.1l0.1-0.1l0,0l0.4-0.5
	c0.2-0.3,0.4-0.6,0.6-0.9c0.2-0.4,0.3-0.7,0.4-1.1c0,0,0-0.1,0-0.1v0c0,0,0,0,0-0.1c0-0.1,0-0.2,0.1-0.3v0c0,0,0-0.1,0-0.1
	c0,0,0-0.1,0-0.1c0-0.2,0.1-0.4,0.1-0.5l0-0.2l0,0l0,0c0-0.2,0-0.7,0-1v-0.2c0,0,0-1.1-0.1-1.6c0-0.1,0-0.5-0.1-1.1v0
	c0-0.1,0-0.3,0-0.4l0-0.1c0-0.1,0-0.2,0-0.3l0-0.1h0c0-0.1,0-0.1,0-0.2l0,0l0,0c0-0.8,0-1.6-0.1-2.3c0-0.2,0-0.5,0-0.7
	c0-0.2,0-0.4,0-0.6c0-0.2,0-0.4,0-0.6l0-0.1c0,0,0,0,0-0.1c0.1-0.8,0.2-1.6,0.4-2.4l0,0c0,0,0-0.1,0-0.1c0-0.1,0-0.1,0-0.2
	c0,0,0,0,0,0c0,0-0.1-0.1-0.1-0.1c-0.1-0.1-0.2-0.2-0.3-0.4c-0.2-0.2-0.5-0.5-0.8-0.9l0,0c0-0.1-0.1-0.1-0.1-0.2
	c-0.7-0.8-1.4-1.6-1.5-1.6l-0.1-0.1l-0.1,0.1c-0.3,0.1-0.6,0.2-1,0.3c-1.1,0.2-2.2,0.3-3.3,0.3v-3.1h0.2c0.2,0,0.7,0,1.1,0
	c0.1,0.3,0.2,0.5,0.3,0.7l0,0c0,0,0,0,0,0c0,0,0,0,0,0.1l0,0l0,0l0,0c0,0,0,0,0,0c0,0,0,0,0,0c0,0,0,0,0,0c0,0,0,0,0,0
	c0.3,0.3,0.7,0.6,1.1,0.7c0,0,0,0,0.1,0c0,0,0.3,0.1,0.4,0.1l0,0c0.1,0,0.2,0,0.2,0c0.5,0.3,1.1,0.5,1.7,0.4
	c0.2-0.1,0.7-0.3,0.8-0.4l1.4,1.6l1.9,2.2c-0.6,1.5-0.9,3.1-0.9,4.7c0,0.7,0,1.7,0,2.3l0,0.5l0,0.1l0,0.2c0,0.4,0.1,1.3,0.1,1.7v0
	c0.1,1,0.1,1.9,0.1,2.8l0,0.5c0,0,0,0,0,0c0,0.2-0.1,0.4-0.1,0.6c-0.5,1.4-1.2,2.8-2.1,3.9L46,34.5z M41,9.4c0,0.1,0,0.2,0,0.3
	c0,0.6,0,1.1,0.2,1.7H40v-2H41z M40,9.1V6.3c0.5,0.1,1,0.3,1.4,0.6c0.2,0.2,0.4,0.4,0.6,0.7c-0.2,0.1-0.3,0.3-0.4,0.4l0,0
	c0,0,0,0,0,0c0,0,0,0,0,0.1c0,0,0,0,0,0l0,0c0,0,0,0,0,0v0l0,0c0,0,0,0.1-0.1,0.1l0,0c-0.1,0.2-0.2,0.3-0.2,0.5l0,0c0,0,0,0.1,0,0.1
	l0,0c0,0,0,0,0,0c0,0,0,0,0,0l0,0c0,0,0,0.1,0,0.1L40,9.1z M39.5,41.4c-0.1-2.6,0.8-3.3,0.8-3.3c0.8-0.7,2-0.6,2.8,0.1
	c-0.7-0.6-1.7-0.5-2.4,0.2c-0.9,1.1-0.9,2.8-0.6,4.4c0.1,0.9,0.6,1.8,1.5,2.2C40.7,44.9,39.6,44.4,39.5,41.4L39.5,41.4z M41.7,42.6
	c0.3,0,0.6,0.1,0.9,0.2c0,0,0,0,0.1,0c0.1,0,0.1,0.1,0.2,0.1c0.3,0.2,0.4,0.5,0.4,0.8c0,0,0,0,0,0.1c-0.2,0.2-0.5,0.4-0.8,0.4
	c-0.2,0-0.4-0.1-0.6-0.2c0,0,0,0,0,0c0,0,0,0,0,0c-0.3-0.3-0.5-0.8-0.6-1.3C41.4,42.6,41.6,42.6,41.7,42.6L41.7,42.6z M42.5,40
	c-0.1,0-0.1,0-0.2,0c-0.2,0-0.5,0-0.9,0c0.1-0.4,0.3-0.8,0.7-0.8h0c0.1,0,0.3,0,0.4,0.1C42.6,39.5,42.6,39.7,42.5,40L42.5,40z
	 M43.4,39.4c-0.1,0.2-0.3,0.4-0.6,0.5c0.1-0.3,0.1-0.6-0.1-0.8c-0.2-0.2-0.4-0.3-0.6-0.2c-0.4,0-0.8,0.4-0.9,1.1l0,0
	c0,0.2-0.1,0.4-0.1,0.7c-0.1,1.6,0.1,2.7,0.6,3.3c0.2,0.2,0.5,0.4,0.8,0.4h0c0.3,0,0.6-0.1,0.8-0.3c0,0,0,0,0-0.1
	c0.1,0.2,0.1,0.5-0.1,0.7c-0.2,0.2-0.4,0.4-0.7,0.3h0c-0.5,0-2.2-0.3-2.3-3.8c-0.1-0.9,0.2-1.8,0.7-2.5c0.3-0.3,0.7-0.5,1.1-0.5
	c0.5,0,0.9,0.2,1.2,0.7C43.4,39.1,43.4,39.3,43.4,39.4L43.4,39.4z M49,10.9l0.5,0.3l1.2-1.2l0.9-1l4.5,4.4c-0.6,0.6-1.2,1.2-1.6,1.7
	c-1.2,1.1-2.2,2.2-3.2,3.5c0,0,0,0,0,0c0,0,0,0,0,0l0,0l0,0v0l0,0c-0.1,0.1-0.1,0.2-0.1,0.2c0,0,0,0,0,0c0,0,0,0,0,0.1c0,0,0,0,0,0
	l0,0c0,0,0,0.1-0.1,0.1c-0.6,1.3-0.6,3.7-0.6,5.4l0,0.1c0,0.5,0,1,0,1.4c0.1,1.6,0,3.2-0.2,4.8c-0.1,0.8-0.3,1.5-0.6,2.2
	c-0.3,0.7-0.8,1.4-1.3,2c-0.7,0.8-1.5,1.6-2.3,2.3c-0.7,0.7-1.5,1.3-2.3,1.8c0-0.2,0-0.4-0.1-0.5c-0.1-0.2-0.2-0.4-0.4-0.5l0,0
	c0,0,0,0,0,0c0.9-0.6,1.7-1.2,2.4-2c0.7-0.7,1.3-1.4,1.8-2.2c0.6-0.9,1.1-1.9,1.4-3v0c0.1-0.2,0.1-0.5,0.1-0.7
	c0.1-1.1,0-2.2-0.1-3.3l0-0.1c-0.1-1.6-0.2-3.1-0.1-4.7c0-1.2,0.2-2.3,0.4-3.4c0.1-0.4,0.2-0.8,0.4-1.2l0.1-0.2l-0.1-0.1
	c-0.8-1-2.7-3.2-3.4-4.1c0.1-0.1,0.2-0.2,0.3-0.3c0.4-0.5,0.5-1.2,0.4-1.8c-0.1-0.7-0.7-1.3-1.4-1.3c0,0,0,0,0,0
	c-0.3,0-0.6,0.2-0.7,0.4c-0.1,0.1-0.1,0.3-0.1,0.4c-0.1,0.5,0,1,0.4,1.4c0,0,0.1,0,0.1,0c0.1,0,0.1,0,0.2,0c0.2,0,0.3-0.1,0.4-0.2
	c0.1-0.2,0-0.3,0-0.5c0,0-0.1-0.1-0.1-0.1c0,0-0.1,0-0.1,0.1c0,0,0,0,0,0l0,0c0,0,0,0.1,0,0.1c0,0.1,0,0.1,0,0.2c0,0,0,0.1-0.1,0.1
	c-0.1,0-0.2,0-0.3-0.1C45,11.3,45,11,45,10.6c0-0.3,0.2-0.5,0.5-0.5c0.1,0,0.2,0,0.4,0h0c0.2,0,0.3,0.1,0.4,0.2
	c0.3,0.2,0.4,0.6,0.5,0.9c0.1,0.4,0,0.9-0.1,1.3c-0.1,0.2-0.2,0.4-0.4,0.5l0,0c0,0,0,0,0,0c-0.1,0.1-0.3,0.1-0.5,0.1
	c-0.2,0-0.4-0.1-0.6-0.2c-0.9-0.7-1.4-2-1.1-3.2c0.2-1.3,0.8-2.1,1.6-2.2c0.4,0,0.8,0,1.2,0.2C48.1,8.5,48.8,9.6,49,10.9L49,10.9z
	 M48.6,8.7c0,0,0,0.1,0.1,0.1c0,0.1,0.1,0.2,0.1,0.2c0,0.1,0.1,0.1,0.1,0.2c0,0.1,0.1,0.2,0.1,0.4c-0.1-0.3-0.3-0.6-0.4-0.8
	c-1.2-1.7-3.5-2.1-4.5,0c-0.6,1.7-0.3,4.5,1.6,4.6c0.1,0,0.1,0,0.1,0c0,0-0.1,0-0.1,0c-0.5,0.1-1.1,0-1.5-0.2
	c-0.9-0.5-1.3-1.6-1.3-3c0-1.5,1-2.8,2.5-3.2C46.6,6.8,47.9,7.5,48.6,8.7L48.6,8.7z M44.1,7.2L44.1,7.2c-0.1,0-0.1,0.1-0.2,0.1
	c-0.9,0.6-1.5,1.7-1.6,2.8c-0.1,1,0.2,2,0.8,2.8c0,0.1,0.1,0.1,0.1,0.2h0c0,0-2-0.1-1.9-3.1c0-1.5,1.1-2.7,2.6-2.8
	C44,7.2,44,7.2,44.1,7.2z M36.1,7L36.1,7l0-0.6l0-3.2c0.7,0.6,1.5,0.9,2.3,0.9h0v0c0,0,0,0,0-0.1c0.1-1-0.2-2-0.7-2.8h2.8
	c-0.6,0.8-0.9,1.8-0.7,2.8c0,0,0,0.1,0,0.1v0h0c0.9,0,1.7-0.3,2.3-0.9l0,3.2v0.6l0,0v0.2c0,0-0.1-0.1-0.1-0.1l0,0
	C42,7,41.9,6.8,41.7,6.7c-0.2-0.2-0.4-0.3-0.6-0.4c-0.4-0.2-0.9-0.4-1.3-0.4l-0.2,0V13l0,5.2h-1l0,0v-2.8l0-9.5l-0.2,0
	C38,6,37.5,6.1,37.1,6.3c-0.2,0.1-0.4,0.2-0.6,0.4c-0.1,0.1-0.2,0.2-0.3,0.4C36.2,7.1,36.2,7.1,36.1,7c0.1,0.1,0,0.1,0,0.2L36.1,7z
	 M36.9,9.9c0.1,2.7-1.5,3-1.8,3l0,0c0.1-0.1,0.1-0.2,0.2-0.3c0.5-0.8,0.7-1.7,0.6-2.7c0-1.1-0.7-2.2-1.7-2.7c-0.1,0-0.1-0.1-0.1-0.1
	l0,0C35.7,7.2,36.9,8.3,36.9,9.9C36.9,9.8,36.9,9.9,36.9,9.9L36.9,9.9z M33,7.1c0.8,0.1,1.4,0.6,1.9,1.2c0.4,0.6,0.6,1.2,0.7,1.9
	c0,1.3-0.3,2.5-1.2,3c-0.4,0.2-0.9,0.3-1.4,0.2c0,0,0,0,0,0c0,0,0,0,0,0c1.8-0.2,2-2.8,1.4-4.5c-1.1-2.3-4.1-1.6-4.9,0.7
	C29.8,7.8,31.4,6.7,33,7.1z M34.5,39.2c-0.8-0.5-1.6-1.1-2.3-1.8c-0.8-0.7-1.6-1.6-2.3-2.3c-0.5-0.6-1-1.3-1.3-2
	c-0.3-0.7-0.5-1.5-0.6-2.2c-0.2-1.6-0.3-3.2-0.2-4.8c0-0.5,0-1,0-1.4l0-0.1c0-1.6,0.1-4.1-0.6-5.4c0,0,0-0.1-0.1-0.1v0c0,0,0,0,0,0
	c0,0,0,0,0-0.1c0,0,0,0,0,0c0-0.1-0.1-0.1-0.1-0.2l0,0v0l0,0l0,0l0,0c0,0,0,0,0,0c-1-1.3-2-2.4-3.2-3.5c-0.5-0.5-1-1-1.6-1.7L26.7,9
	l0.9,1l1.2,1.2l0.5-0.3l0-0.1c0.1-1.3,0.9-2.4,2-3c0.4-0.2,0.8-0.2,1.2-0.2c0.8,0.1,1.4,0.9,1.6,2.2c0.3,1.2-0.1,2.4-1.1,3.2
	c-0.2,0.1-0.4,0.2-0.6,0.2c-0.2,0-0.3,0-0.5-0.1c0,0,0,0,0,0l0,0c-0.2-0.1-0.3-0.3-0.4-0.5c-0.2-0.4-0.2-0.9-0.1-1.3
	c0.1-0.3,0.2-0.7,0.5-0.9c0.1-0.1,0.3-0.1,0.4-0.2h0c0.1,0,0.2,0,0.4,0c0.3,0,0.5,0.3,0.5,0.5c0.1,0.3,0,0.7-0.1,1
	c-0.1,0.1-0.2,0.1-0.3,0.1c0,0-0.1,0-0.1-0.1c0-0.1,0-0.1,0-0.2c0,0,0-0.1,0-0.1l0,0c0,0,0,0,0,0c0,0-0.1-0.1-0.1-0.1
	c-0.1,0-0.1,0-0.1,0.1c-0.1,0.1-0.1,0.3,0,0.5c0.1,0.2,0.2,0.3,0.4,0.2c0.1,0,0.1,0,0.2,0c0,0,0.1,0,0.1,0c0.4-0.3,0.5-0.9,0.4-1.4
	c0-0.1-0.1-0.3-0.1-0.4c-0.1-0.3-0.4-0.4-0.7-0.4c0,0,0,0,0,0c-0.7,0-1.3,0.6-1.4,1.3c-0.1,0.6,0,1.3,0.4,1.8
	c0.1,0.1,0.2,0.2,0.3,0.3c-0.7,0.8-2.6,3.1-3.4,4.1l-0.1,0.1l0.1,0.2c0.2,0.4,0.3,0.8,0.4,1.2c0.2,1.1,0.4,2.3,0.4,3.4
	c0.1,1.6,0,3.1-0.1,4.7l0,0.1c-0.1,1.1-0.1,2.2-0.1,3.3c0,0.2,0.1,0.5,0.1,0.7v0c0.3,1.1,0.8,2.1,1.4,3c0.5,0.8,1.2,1.5,1.8,2.2
	c0.7,0.7,1.6,1.4,2.4,2c0,0,0,0,0,0l0,0c-0.1,0.2-0.2,0.4-0.4,0.5C34.5,38.9,34.5,39,34.5,39.2L34.5,39.2z M36,39.9
	c-0.1,0-0.1,0-0.2,0c-0.1-0.2-0.1-0.5,0-0.7c0.1-0.1,0.2-0.2,0.4-0.1h0c0.4,0,0.6,0.4,0.7,0.8C36.5,39.9,36.2,39.9,36,39.9z
	 M35.4,42.9c0,0,0.1-0.1,0.2-0.1c0,0,0.1,0,0.1,0c0.3-0.1,0.6-0.2,0.9-0.2c0.1,0,0.3,0,0.4,0c-0.1,0.5-0.3,0.9-0.6,1.3c0,0,0,0,0,0
	l0,0c-0.2,0.1-0.4,0.2-0.6,0.2c-0.3,0-0.6-0.1-0.8-0.4c0,0,0,0,0-0.1C35,43.4,35.1,43.1,35.4,42.9z M35,44.7
	c-0.1-0.2-0.1-0.5-0.1-0.7c0,0,0,0,0,0.1c0.2,0.2,0.5,0.3,0.8,0.3h0c0.3,0,0.6-0.1,0.8-0.4c0.5-0.5,0.7-1.6,0.6-3.3
	c0-0.2,0-0.4-0.1-0.7l0,0c-0.2-0.7-0.5-1.1-0.9-1.1c-0.2,0-0.5,0.1-0.6,0.2c-0.1,0.2-0.2,0.5-0.1,0.8c-0.2-0.1-0.5-0.3-0.6-0.5
	c-0.1-0.2-0.1-0.3,0-0.5c0.2-0.4,0.7-0.7,1.2-0.7c0.4,0,0.8,0.2,1.1,0.5c0.6,0.7,0.8,1.6,0.7,2.5c-0.1,3.6-1.8,3.8-2.3,3.8h0
	C35.4,45.1,35.1,44.9,35,44.7L35,44.7z"/>
</svg>
